<?xml version="1.0" encoding="utf-8"?>
<!-- Created by sK1 2.0rc4 (https://sk1project.net/) -->
<svg xmlns="http://www.w3.org/2000/svg" height="400.0px" width="400.0px" version="1.1" xmlns:xlink="http://www.w3.org/1999/xlink" id="5ee1de42-9981-11eb-8f0e-3497f655573b">

<g>
	<path style="fill-rule:evenodd;fill:#2656b5;" d="M 188.769,43.21 C 188.177,43.952 187.658,45.056 187.615,45.664 187.573,46.272 187.504,47.09 187.462,47.483 187.419,47.876 185.031,49.133 182.154,50.277 179.277,51.421 176.092,52.739 175.077,53.205 174.062,53.671 171.985,54.533 170.462,55.119 168.938,55.705 167.429,56.42 167.108,56.708 166.786,56.995 166.145,57.231 165.684,57.231 165.222,57.231 163.331,57.923 161.481,58.769 159.631,59.615 157.857,60.308 157.539,60.308 157.221,60.308 155.925,60.889 154.659,61.6 L 152.358,62.893 151.24,61.513 C 150.234,60.271 150.216,60.028 151.061,59.094 152.573,57.424 152.289,52.794 150.576,51.184 146.379,47.242 139.041,52.95 142.099,57.779 142.5,58.411 141.343,59.695 137.665,62.702 134.929,64.939 131.565,67.758 130.191,68.968 123.016,75.28 119.254,76.97 115.911,75.383 111.143,73.121 105.231,76.075 105.231,80.718 105.231,82.822 104.497,83.62 92.311,94.769 88.796,97.985 84.787,101.723 83.401,103.077 82.014,104.431 78.288,107.892 75.121,110.769 71.953,113.646 68.426,116.996 67.284,118.214 66.141,119.432 64.124,120.752 62.801,121.149 58.726,122.369 57.96,128.547 61.64,130.516 62.28,130.858 62.653,131.383 62.468,131.682 62.283,131.981 61.884,133.421 61.581,134.882 61.278,136.343 60.608,139.2 60.091,141.231 59.574,143.262 58.714,146.862 58.18,149.231 57.646,151.6 56.945,154.508 56.623,155.692 56.301,156.877 54.765,163.045 53.21,169.399 50.526,180.371 50.265,181.074 48.021,183.363 43.836,187.633 43.878,194.082 48.118,198.197 50.236,200.253 50.684,201.179 51.436,205.056 52.854,212.371 53.607,216.16 54.163,218.769 54.451,220.123 55.002,223.031 55.387,225.231 55.772,227.431 56.218,229.785 56.378,230.462 56.538,231.138 57.072,234.046 57.564,236.923 58.057,239.8 58.762,243.677 59.13,245.538 60.744,253.688 60.8,254.43 59.93,256.123 57.6,260.661 61.106,267.056 65.939,267.081 66.396,267.084 68.154,268.788 69.846,270.868 71.538,272.949 73.989,275.924 75.293,277.479 78.086,280.813 78.888,281.797 82.133,285.864 83.475,287.546 84.731,289.062 84.923,289.231 85.115,289.4 86.371,290.915 87.713,292.598 91.326,297.126 92.352,298.363 95.212,301.64 L 97.809,304.615 96.289,306.855 C 90.225,315.791 101.909,327.105 110.9,321.003 L 113.049,319.545 119.14,324.117 C 122.49,326.632 125.646,329.019 126.154,329.422 126.662,329.824 129.292,331.811 132.0,333.837 138.908,339.004 139.073,339.169 139.106,340.906 139.225,347.148 146.189,350.757 151.237,347.192 152.245,346.48 153.665,346.079 154.769,346.196 155.785,346.303 159.938,346.697 164.0,347.071 173.25,347.923 180.594,348.665 189.092,349.606 L 195.723,350.339 196.711,352.422 C 200.69,360.807 214.414,359.777 216.177,350.96 216.469,349.502 216.947,349.002 218.277,348.768 219.225,348.6 225.677,347.285 232.615,345.844 253.115,341.588 253.996,341.473 257.313,342.629 262.726,344.515 267.684,341.422 267.69,336.154 267.691,335.054 267.917,334.154 268.192,334.154 268.466,334.154 269.228,333.662 269.884,333.06 270.54,332.459 272.046,331.289 273.231,330.462 274.415,329.634 275.921,328.464 276.578,327.863 277.234,327.261 277.975,326.769 278.226,326.769 278.476,326.769 279.047,326.419 279.495,325.99 279.942,325.561 282.385,323.681 284.923,321.81 299.031,311.417 298.003,311.981 300.036,313.519 307.02,318.801 317.904,309.066 314.603,300.49 313.925,298.728 313.547,297.205 313.762,297.105 313.978,297.005 315.262,295.272 316.615,293.254 319.036,289.646 319.858,288.54 322.0,286.008 322.592,285.308 323.077,284.538 323.077,284.298 323.077,283.936 325.043,281.188 327.253,278.462 327.882,277.686 332.746,270.722 334.716,267.778 336.977,264.396 337.877,263.709 339.78,263.908 344.517,264.405 347.512,257.268 343.794,254.344 342.389,253.238 342.375,253.126 343.162,249.222 344.211,244.016 346.4,234.12 347.106,231.385 347.413,230.2 348.373,225.769 349.241,221.538 350.109,217.308 351.085,212.845 351.41,211.621 351.734,210.397 352.0,208.863 352.0,208.213 352.0,207.562 352.533,205.985 353.184,204.707 355.841,199.495 355.909,196.653 353.445,193.79 352.608,192.818 352.167,189.473 350.471,171.22 349.99,166.052 349.429,161.552 349.224,161.22 349.018,160.887 349.157,160.615 349.532,160.615 349.906,160.615 350.892,159.883 351.722,158.987 354.984,155.467 352.509,150.154 347.608,150.154 345.905,150.154 345.231,149.892 345.231,149.231 345.231,148.723 344.954,148.308 344.615,148.308 344.277,148.308 344.0,148.041 344.0,147.714 344.0,147.387 342.447,144.559 340.549,141.429 337.717,136.758 337.22,135.543 337.78,134.647 339.933,131.2 336.068,124.923 331.793,124.923 331.139,124.923 329.914,123.545 328.649,121.385 327.51,119.438 325.928,116.814 325.135,115.552 324.341,114.29 323.692,112.974 323.692,112.629 323.692,112.283 323.415,112.0 323.077,112.0 322.738,112.0 322.462,111.743 322.462,111.43 322.462,111.116 321.374,108.984 320.044,106.692 318.235,103.574 317.77,102.256 318.198,101.457 320.965,96.286 315.876,90.806 310.82,93.511 309.867,94.021 300.023,88.174 298.462,86.17 298.292,85.952 297.523,85.344 296.751,84.817 295.98,84.29 294.127,82.714 292.634,81.314 291.14,79.914 289.552,78.769 289.103,78.769 288.655,78.769 286.189,77.315 283.624,75.538 268.371,64.972 269.538,65.995 269.538,63.204 269.538,58.262 263.669,55.806 260.337,59.354 258.765,61.027 258.366,61.014 250.769,59.043 248.4,58.429 245.008,57.734 243.231,57.499 240.996,57.204 240.0,56.794 240.0,56.17 240.0,51.466 231.665,48.864 227.907,52.395 226.988,53.259 226.05,53.581 225.108,53.355 219.621,52.043 212.082,50.365 209.231,49.822 207.369,49.468 205.154,48.934 204.308,48.635 203.462,48.337 201.731,47.921 200.462,47.711 198.525,47.39 198.154,47.086 198.154,45.818 198.154,42.055 191.23,40.131 188.769,43.21 M 201.775,49.819 C 207.052,51.215 221.847,54.562 224.301,54.915 227.578,55.386 225.894,57.082 221.723,57.512 219.421,57.749 216.431,58.176 215.077,58.463 213.723,58.749 210.538,59.288 208.0,59.662 202.521,60.467 198.156,61.175 192.336,62.199 188.389,62.894 188.006,62.866 187.413,61.833 185.678,58.814 182.578,56.079 180.038,55.329 L 177.334,54.531 180.821,53.033 C 182.739,52.209 185.123,51.177 186.118,50.739 187.709,50.04 188.112,50.087 189.432,51.125 191.542,52.785 194.627,52.643 196.735,50.789 198.717,49.045 198.792,49.03 201.775,49.819 M 169.137,58.308 C 167.772,59.942 166.769,62.621 166.769,64.633 166.769,66.011 166.442,66.505 165.385,66.72 164.623,66.875 163.169,67.18 162.154,67.397 156.722,68.558 155.924,68.489 154.55,66.742 152.662,64.342 152.654,64.351 159.02,61.884 162.203,60.651 165.873,59.11 167.173,58.461 170.12,56.989 170.247,56.979 169.137,58.308 M 228.692,63.719 L 231.228,65.654 228.599,73.596 C 227.154,77.964 225.36,83.566 224.613,86.044 223.763,88.864 222.876,90.661 222.243,90.846 221.686,91.008 220.098,91.696 218.713,92.374 L 216.196,93.606 211.329,90.2 C 199.022,81.59 191.64,76.362 191.061,75.847 190.714,75.538 189.606,74.756 188.599,74.109 185.398,72.051 185.318,71.886 186.551,69.863 187.176,68.839 187.689,67.244 187.69,66.319 187.692,65.065 188.043,64.573 189.077,64.378 192.876,63.663 198.968,62.707 203.385,62.133 206.092,61.781 209.831,61.246 211.692,60.945 213.554,60.644 217.292,60.076 220.0,59.684 222.708,59.291 225.062,58.831 225.231,58.661 225.4,58.491 225.677,59.124 225.847,60.068 226.039,61.139 227.109,62.512 228.692,63.719 M 244.923,59.728 C 246.446,60.04 250.046,60.844 252.923,61.516 255.8,62.188 258.362,62.745 258.615,62.753 258.869,62.762 259.077,63.481 259.077,64.352 259.077,67.528 263.255,69.658 266.348,68.059 268.186,67.108 273.635,70.206 281.846,76.87 L 283.385,78.118 281.472,78.503 C 274.851,79.836 272.004,90.002 276.851,95.002 L 278.852,97.067 277.508,100.072 C 275.859,103.759 275.036,105.673 272.975,110.612 268.706,120.844 268.557,121.05 265.201,121.373 262.731,121.61 261.839,122.04 260.402,123.685 L 258.638,125.706 255.583,123.315 C 253.903,121.999 251.594,120.231 250.452,119.385 249.31,118.538 247.529,117.136 246.495,116.268 245.461,115.401 243.646,114.025 242.462,113.212 241.277,112.398 239.917,111.353 239.44,110.889 238.963,110.425 237.025,108.908 235.133,107.518 229.031,103.034 229.026,103.027 229.712,100.44 230.458,97.626 228.85,93.692 226.462,92.489 224.634,91.569 224.623,91.664 227.663,82.462 228.949,78.569 230.463,73.862 231.028,72.0 232.736,66.367 233.317,65.231 234.492,65.231 236.113,65.231 240.0,61.333 240.0,59.708 240.0,58.647 240.248,58.426 241.077,58.746 241.669,58.975 243.4,59.417 244.923,59.728 M 149.16,62.17 C 150.324,63.281 146.618,65.846 143.849,65.846 143.391,65.846 142.752,66.08 142.431,66.366 142.109,66.651 140.185,67.527 138.154,68.312 136.123,69.097 134.185,69.937 133.846,70.179 130.649,72.462 130.891,70.951 134.154,68.255 136.354,66.437 138.569,64.519 139.077,63.992 142.758,60.169 146.378,59.515 149.16,62.17 M 152.535,67.231 L 153.805,69.231 151.518,69.615 C 150.26,69.826 146.323,70.624 142.769,71.389 130.784,73.969 129.199,73.666 137.846,70.448 140.385,69.504 143.846,68.117 145.538,67.367 148.865,65.892 150.235,65.355 150.863,65.279 151.083,65.253 151.836,66.131 152.535,67.231 M 167.385,69.019 C 167.385,71.949 172.841,75.692 177.113,75.692 L 179.882,75.692 179.482,83.538 C 179.262,87.854 179.075,94.431 179.067,98.154 L 179.052,104.923 175.372,99.232 C 173.348,96.102 171.692,93.287 171.692,92.976 171.692,92.665 171.485,92.318 171.231,92.205 170.685,91.963 168.0,88.211 168.0,87.691 168.0,87.494 167.719,86.998 167.376,86.589 166.085,85.052 163.692,81.154 163.692,80.588 163.692,80.265 163.434,80.0 163.118,80.0 162.803,80.0 162.369,79.448 162.155,78.773 161.941,78.098 161.438,77.186 161.037,76.747 160.232,75.865 159.251,74.368 157.886,71.939 L 156.987,70.339 161.724,69.384 C 167.763,68.166 167.385,68.19 167.385,69.019 M 165.644,87.544 C 171.625,96.764 176.862,105.069 177.281,106.0 177.701,106.931 178.271,107.692 178.55,107.692 179.097,107.692 178.569,125.765 177.923,129.117 L 177.53,131.158 171.996,127.091 C 168.952,124.854 165.36,122.3 164.014,121.416 162.667,120.531 161.24,119.505 160.843,119.135 153.25,112.069 150.033,110.525 146.054,112.038 143.415,113.041 118.467,87.639 119.159,84.653 119.399,83.617 119.617,82.171 119.644,81.44 119.671,80.709 120.47,79.499 121.421,78.752 123.46,77.148 124.743,76.78 136.308,74.479 146.124,72.526 151.66,71.314 151.912,71.063 153.554,69.42 155.061,71.229 165.644,87.544 M 192.049,78.92 C 193.599,80.022 198.03,83.123 201.895,85.812 205.761,88.501 209.062,90.858 209.231,91.05 209.4,91.242 210.96,92.363 212.697,93.541 215.537,95.467 215.799,95.832 215.294,97.161 214.651,98.852 215.554,102.248 216.955,103.411 218.368,104.584 218.061,106.291 214.397,117.632 208.854,134.786 209.465,133.538 206.616,133.538 205.241,133.538 203.122,134.126 201.783,134.879 200.471,135.616 199.315,136.1 199.213,135.956 198.844,135.432 193.28,126.879 187.166,117.434 L 180.923,107.792 180.923,100.455 C 180.923,96.42 181.104,88.944 181.325,83.842 181.869,71.269 181.515,71.431 192.049,78.92 M 106.467,88.605 C 106.102,89.287 105.605,89.854 105.363,89.864 105.121,89.873 103.677,90.998 102.154,92.362 100.631,93.727 98.608,95.45 97.658,96.191 95.147,98.151 93.606,99.433 90.154,102.434 88.462,103.905 85.596,106.313 83.786,107.785 76.714,113.536 75.106,114.862 72.069,117.442 70.339,118.912 68.923,119.96 68.923,119.771 68.923,119.29 71.311,116.956 79.079,109.846 82.776,106.462 86.648,102.862 87.683,101.846 88.718,100.831 93.02,96.815 97.244,92.923 101.467,89.031 105.022,85.619 105.143,85.341 105.263,85.064 105.76,85.405 106.247,86.1 106.916,87.055 106.97,87.666 106.467,88.605 M 300.33,89.865 C 301.368,90.752 303.583,92.287 305.251,93.277 308.066,94.948 308.285,95.253 308.309,97.538 308.344,100.892 309.864,102.679 313.159,103.241 315.654,103.667 324.308,115.284 324.308,118.206 324.308,118.516 324.585,118.769 324.923,118.769 325.262,118.769 325.545,119.115 325.552,119.538 325.56,119.962 326.107,121.0 326.769,121.846 328.418,123.954 328.323,124.477 325.846,126.954 324.662,128.138 323.692,129.569 323.692,130.134 323.692,130.82 323.336,131.056 322.615,130.847 322.023,130.674 318.354,130.372 314.462,130.175 310.569,129.978 305.104,129.66 302.316,129.469 L 297.247,129.122 296.575,126.561 C 295.486,122.412 294.905,119.967 293.85,115.077 293.302,112.538 292.156,107.599 291.304,104.101 289.737,97.669 289.928,96.162 292.329,96.02 293.273,95.963 294.832,91.966 294.946,89.307 L 295.077,86.266 296.759,87.26 C 297.685,87.807 299.292,88.979 300.33,89.865 M 130.125,100.997 C 142.166,113.249 142.86,114.08 142.219,115.488 140.827,118.542 141.597,122.186 144.097,124.38 145.531,125.639 145.147,127.314 142.104,133.069 141.793,133.656 141.538,134.41 141.538,134.743 141.538,135.076 140.879,136.81 140.072,138.597 139.266,140.384 138.403,142.538 138.154,143.385 137.905,144.231 137.042,146.385 136.235,148.172 135.429,149.959 134.769,151.638 134.769,151.903 134.769,152.168 134.251,153.475 133.617,154.807 132.983,156.14 132.097,158.269 131.647,159.538 130.876,161.717 130.682,161.846 128.205,161.846 126.138,161.846 125.112,162.258 123.367,163.791 L 121.152,165.735 117.038,161.678 C 114.775,159.446 109.78,154.603 105.939,150.915 99.958,145.172 99.075,144.08 99.785,143.312 104.296,138.432 101.303,126.769 95.54,126.769 94.965,126.769 96.113,122.601 97.828,118.462 98.108,117.785 98.67,116.262 99.077,115.077 99.484,113.892 100.053,112.369 100.342,111.692 100.631,111.015 101.59,108.246 102.472,105.538 103.354,102.831 104.306,100.062 104.588,99.385 106.379,95.071 107.692,91.42 107.692,90.753 107.692,89.744 109.095,89.233 111.896,89.221 113.138,89.216 114.569,88.943 115.077,88.615 116.776,87.517 117.3,87.948 130.125,100.997 M 104.526,94.615 C 104.152,95.546 103.618,96.862 103.339,97.538 103.06,98.215 102.414,100.015 101.905,101.538 101.395,103.062 99.691,107.908 98.118,112.308 96.546,116.708 95.116,120.935 94.94,121.701 94.765,122.468 94.378,123.246 94.08,123.43 93.782,123.614 93.538,124.264 93.538,124.874 93.538,125.744 92.883,126.06 90.489,126.344 83.096,127.219 78.189,137.092 82.68,142.055 83.787,143.278 82.063,147.766 79.216,151.077 78.925,151.415 76.364,155.431 73.525,160.0 70.687,164.569 68.144,168.6 67.875,168.957 66.959,170.17 65.845,171.996 65.268,173.231 63.498,177.021 59.915,181.44 59.054,180.896 58.559,180.583 56.977,180.322 55.538,180.317 52.667,180.307 52.429,179.841 53.507,176.351 53.829,175.312 54.828,171.138 55.728,167.077 56.628,163.015 57.585,159.0 57.854,158.154 58.124,157.308 58.634,155.369 58.989,153.846 59.344,152.323 60.085,149.277 60.636,147.077 61.186,144.877 61.886,141.969 62.191,140.615 62.496,139.262 63.072,136.7 63.471,134.923 64.01,132.521 64.475,131.692 65.282,131.692 68.11,131.692 70.324,128.591 69.966,125.129 69.633,121.898 69.648,121.863 72.2,119.881 74.573,118.038 81.753,112.093 82.462,111.385 82.631,111.215 84.431,109.698 86.462,108.014 88.492,106.329 90.292,104.806 90.462,104.629 90.631,104.452 92.154,103.209 93.846,101.867 95.538,100.525 97.062,99.269 97.231,99.077 97.4,98.885 98.923,97.629 100.615,96.287 102.308,94.944 103.785,93.638 103.897,93.385 104.503,92.022 105.098,93.188 104.526,94.615 M 288.138,99.295 C 288.382,99.683 288.88,101.523 289.244,103.385 289.855,106.508 292.845,119.274 294.146,124.308 295.64,130.091 296.976,129.592 282.923,128.498 273.823,127.789 273.231,127.666 273.23,126.487 273.23,125.796 272.547,124.437 271.713,123.468 270.309,121.835 270.259,121.562 271.034,119.775 271.495,118.714 272.344,116.738 272.923,115.385 273.501,114.031 274.528,111.677 275.206,110.154 276.933,106.272 277.872,104.117 279.231,100.923 L 280.409,98.154 284.051,98.372 C 286.054,98.492 287.893,98.907 288.138,99.295 M 231.482,107.242 C 233.29,108.687 235.877,110.69 237.231,111.694 238.585,112.697 240.108,113.867 240.615,114.295 241.607,115.13 245.301,117.95 253.731,124.308 258.124,127.621 260.165,129.846 258.811,129.846 258.536,129.846 248.368,132.469 238.154,135.175 234.938,136.027 230.508,137.125 228.308,137.615 226.108,138.104 223.338,138.76 222.154,139.071 216.753,140.491 216.756,140.491 216.339,139.175 216.12,138.486 214.916,137.021 213.663,135.92 212.41,134.819 211.469,133.487 211.572,132.959 211.857,131.496 217.182,114.565 218.454,111.077 219.071,109.385 219.732,107.515 219.922,106.923 220.171,106.151 220.928,105.843 222.596,105.837 223.876,105.832 225.338,105.559 225.846,105.231 227.363,104.251 228.042,104.493 231.482,107.242 M 184.275,116.615 C 185.25,118.308 186.223,119.831 186.438,120.0 186.653,120.169 187.577,121.554 188.493,123.077 189.409,124.6 191.93,128.612 194.096,131.993 197.865,137.876 197.997,138.211 197.171,139.809 196.696,140.726 196.308,142.199 196.308,143.081 L 196.308,144.685 194.417,143.573 C 193.377,142.962 192.062,142.039 191.494,141.523 190.926,141.006 188.056,138.854 185.115,136.739 L 179.769,132.895 180.066,125.063 C 180.611,110.684 180.726,110.454 184.275,116.615 M 167.077,125.955 C 169.785,127.87 172.138,129.612 172.308,129.825 172.477,130.039 173.585,130.879 174.769,131.692 175.954,132.506 177.146,133.462 177.418,133.817 177.921,134.471 177.524,168.291 176.838,183.28 176.525,190.105 176.294,191.533 175.462,191.787 173.154,192.489 171.355,193.867 170.386,195.673 169.818,196.732 169.257,197.372 169.138,197.095 169.02,196.818 167.262,195.5 165.231,194.167 163.2,192.834 161.262,191.521 160.923,191.25 160.585,190.978 159.588,190.218 158.709,189.561 157.168,188.409 157.096,188.068 156.719,180.183 156.504,175.682 156.031,166.046 155.667,158.769 154.061,126.666 154.037,124.774 155.217,122.769 155.814,121.754 156.304,120.273 156.305,119.48 156.308,118.073 156.384,118.094 159.231,120.254 160.838,121.474 164.369,124.04 167.077,125.955 M 152.629,127.231 C 152.66,129.554 154.51,173.039 154.872,179.928 L 155.256,187.24 148.859,182.783 C 145.34,180.331 140.795,177.206 138.759,175.837 L 135.056,173.349 135.067,169.495 C 135.075,166.375 134.821,165.367 133.735,164.205 132.396,162.772 132.396,162.764 133.56,160.308 134.202,158.954 134.737,157.507 134.748,157.092 134.76,156.678 135.6,154.525 136.615,152.308 137.631,150.091 138.462,147.924 138.462,147.492 138.462,147.061 138.709,146.445 139.012,146.123 139.315,145.802 140.295,143.462 141.19,140.923 142.085,138.385 143.36,135.134 144.024,133.699 144.688,132.264 145.231,130.853 145.231,130.563 145.231,128.078 147.265,126.154 149.891,126.154 152.07,126.154 152.618,126.369 152.629,127.231 M 293.299,130.822 L 295.828,131.127 296.883,135.871 C 298.754,144.286 301.554,155.947 302.17,157.89 302.926,160.275 302.941,162.462 302.201,162.462 299.589,162.462 296.584,167.253 296.049,172.27 L 295.692,175.617 292.308,176.76 C 290.446,177.389 288.058,178.303 287.0,178.791 285.942,179.278 280.403,181.507 274.692,183.744 268.981,185.98 262.846,188.476 261.059,189.29 259.272,190.103 257.449,190.769 257.007,190.769 256.566,190.769 255.998,190.977 255.744,191.231 253.674,193.301 250.142,193.718 248.418,192.096 246.892,190.659 246.203,190.468 242.726,190.519 240.55,190.55 238.769,190.37 238.769,190.118 238.769,189.708 233.459,182.298 232.622,181.538 232.435,181.369 230.351,178.6 227.99,175.385 225.63,172.169 223.478,169.262 223.208,168.923 222.937,168.585 220.228,164.985 217.186,160.923 L 211.656,153.538 213.532,152.0 C 215.978,149.995 217.231,147.495 217.231,144.617 217.231,142.713 217.479,142.242 218.615,141.99 219.377,141.82 224.431,140.515 229.846,139.088 241.467,136.027 242.752,135.705 248.0,134.539 250.2,134.05 253.643,133.2 255.652,132.65 L 259.304,131.649 260.575,133.169 C 263.762,136.982 270.581,136.24 272.615,131.858 L 273.538,129.87 282.154,130.194 C 286.892,130.373 291.907,130.655 293.299,130.822 M 312.615,131.995 C 322.978,132.416 323.163,132.469 324.402,135.385 325.401,137.739 328.386,139.689 330.998,139.694 331.756,139.696 332.349,141.155 333.436,145.694 334.226,148.993 335.402,153.631 336.048,156.0 336.695,158.369 337.751,162.523 338.394,165.231 339.038,167.938 340.452,173.477 341.536,177.538 342.62,181.6 343.721,185.892 343.984,187.077 344.246,188.262 344.666,189.721 344.916,190.319 345.248,191.113 344.827,191.883 343.363,193.161 L 341.354,194.915 339.139,193.466 C 337.92,192.669 336.646,191.79 336.308,191.513 335.969,191.236 331.163,188.036 325.627,184.403 316.577,178.464 315.606,177.66 316.004,176.437 318.507,168.752 314.25,161.846 307.01,161.846 304.788,161.846 304.652,161.731 304.277,159.538 304.061,158.269 303.646,156.4 303.356,155.385 303.065,154.369 302.392,151.462 301.859,148.923 301.326,146.385 300.631,143.338 300.314,142.154 299.465,138.982 297.846,131.988 297.846,131.494 297.846,131.259 299.3,131.199 301.077,131.361 302.854,131.524 308.046,131.809 312.615,131.995 M 181.033,136.182 C 181.48,136.621 184.741,139.027 188.278,141.529 191.816,144.031 196.026,147.457 197.633,149.142 L 200.556,152.207 197.601,157.796 C 193.671,165.23 185.955,179.975 182.622,186.42 178.34,194.701 178.207,194.409 178.674,177.776 179.702,141.119 179.888,135.385 180.048,135.385 180.143,135.385 180.586,135.744 181.033,136.182 M 337.231,139.201 C 337.231,139.536 338.78,142.34 340.673,145.434 343.48,150.018 343.991,151.257 343.443,152.136 341.587,155.108 342.909,159.382 346.055,160.578 347.42,161.097 347.628,161.617 347.966,165.349 348.175,167.653 348.598,171.615 348.907,174.154 351.27,193.558 351.292,192.482 348.544,191.566 347.076,191.077 346.706,190.408 345.697,186.425 345.058,183.907 344.26,180.877 343.923,179.692 343.586,178.508 342.902,175.738 342.402,173.538 341.375,169.01 340.7,166.326 339.692,162.769 339.309,161.415 338.758,159.338 338.469,158.154 338.18,156.969 337.347,153.785 336.617,151.077 333.852,140.817 333.585,139.112 334.652,138.515 335.751,137.9 337.231,138.293 337.231,139.201 M 87.228,145.936 C 87.616,146.324 89.344,146.67 91.067,146.705 93.879,146.763 94.236,146.926 94.556,148.308 94.752,149.154 95.455,151.923 96.118,154.462 96.78,157.0 97.561,160.185 97.852,161.538 98.144,162.892 98.652,164.969 98.982,166.154 100.625,172.05 103.641,183.622 104.675,188.0 105.315,190.708 106.079,193.754 106.374,194.769 106.669,195.785 107.244,197.862 107.651,199.385 108.058,200.908 108.649,203.004 108.965,204.044 109.776,206.715 109.678,208.0 108.663,208.0 108.181,208.0 106.956,208.831 105.941,209.846 103.78,212.007 103.909,211.985 101.016,210.675 96.786,208.76 86.152,203.844 76.308,199.251 73.092,197.751 69.301,196.013 67.882,195.39 65.558,194.368 65.337,194.086 65.647,192.535 66.153,190.005 65.403,186.887 63.676,184.342 61.887,181.706 61.865,181.543 63.093,179.971 63.61,179.31 66.373,175.031 69.234,170.462 72.096,165.892 74.719,161.819 75.065,161.411 75.41,161.002 75.692,160.506 75.692,160.309 75.692,160.112 76.211,159.2 76.844,158.283 77.477,157.366 79.609,154.054 81.581,150.923 85.155,145.249 85.891,144.599 87.228,145.936 M 103.239,151.115 C 106.196,154.013 111.454,159.065 114.923,162.342 120.633,167.734 121.231,168.508 121.231,170.496 121.231,173.582 123.893,176.081 127.321,176.212 128.706,176.264 129.841,176.357 129.843,176.416 129.845,176.476 128.717,180.907 127.336,186.263 125.955,191.618 124.08,198.96 123.168,202.578 121.305,209.971 121.062,210.411 119.542,209.141 117.904,207.772 115.227,206.769 113.214,206.769 111.747,206.769 111.336,206.451 111.024,205.077 110.529,202.9 107.97,193.015 106.364,187.077 105.678,184.538 104.012,178.169 102.663,172.923 99.886,162.124 98.379,156.371 96.971,151.201 95.042,144.112 96.08,144.098 103.239,151.115 M 206.982,154.462 C 209.344,154.462 209.97,154.747 211.373,156.462 213.995,159.667 214.31,160.087 217.503,164.615 219.174,166.985 220.71,169.062 220.916,169.231 221.122,169.4 221.956,170.508 222.769,171.692 223.583,172.877 224.401,173.985 224.588,174.154 225.913,175.352 237.538,191.529 237.538,192.174 237.538,192.62 237.215,193.308 236.821,193.703 236.426,194.097 236.103,195.715 236.103,197.297 L 236.103,200.173 227.128,199.79 C 222.192,199.579 210.815,199.121 201.846,198.772 183.989,198.078 184.0,198.079 184.0,196.443 184.0,195.819 183.447,194.715 182.77,193.989 181.601,192.734 181.883,190.354 183.372,188.923 183.548,188.754 185.149,185.788 186.929,182.333 188.709,178.878 191.446,173.616 193.01,170.641 194.574,167.665 197.245,162.544 198.946,159.26 201.613,154.107 202.187,153.37 203.132,153.876 203.734,154.198 205.467,154.462 206.982,154.462 M 138.295,177.766 C 140.586,179.415 145.225,182.678 148.602,185.017 155.927,190.092 155.491,188.826 156.163,206.97 L 156.615,219.17 154.769,218.787 C 153.754,218.576 148.492,217.979 143.077,217.46 137.662,216.942 131.24,216.326 128.807,216.092 126.374,215.857 124.297,215.533 124.192,215.371 122.645,212.997 122.638,212.413 124.093,206.737 124.912,203.539 125.966,199.262 126.434,197.231 126.903,195.2 128.163,190.215 129.235,186.154 130.306,182.092 131.339,178.077 131.529,177.231 131.859,175.765 132.706,174.799 133.679,174.779 133.926,174.773 136.003,176.118 138.295,177.766 M 298.728,179.384 C 299.845,180.568 301.632,181.711 302.7,181.925 305.236,182.432 305.534,183.037 304.418,185.416 303.91,186.499 302.085,190.368 300.363,194.015 298.64,197.662 297.231,200.763 297.231,200.907 297.231,201.051 295.569,204.658 293.538,208.923 291.508,213.188 289.846,216.783 289.846,216.911 289.846,217.04 289.019,218.933 288.007,221.118 L 286.168,225.091 281.868,225.334 C 277.446,225.584 273.231,228.171 273.231,230.635 273.231,231.536 269.175,231.396 259.385,230.156 255.364,229.646 252.646,229.342 237.077,227.659 233.777,227.302 229.224,226.748 226.958,226.428 224.693,226.108 221.539,225.846 219.949,225.846 L 217.058,225.846 222.549,220.154 C 225.569,217.023 230.429,211.983 233.349,208.953 238.447,203.663 238.723,203.474 240.281,204.184 245.144,206.399 250.462,202.957 250.462,197.593 250.462,195.863 253.862,193.231 256.097,193.231 256.362,193.231 258.092,192.538 259.942,191.692 261.792,190.846 263.593,190.154 263.945,190.154 264.297,190.154 266.398,189.323 268.615,188.308 270.832,187.292 272.999,186.462 273.431,186.462 273.862,186.462 274.478,186.223 274.8,185.932 275.122,185.641 279.538,183.805 284.615,181.853 289.692,179.9 294.109,178.062 294.431,177.767 295.511,176.776 296.686,177.218 298.728,179.384 M 319.558,182.599 C 322.001,184.197 324.366,185.859 324.813,186.291 325.26,186.723 325.864,187.077 326.154,187.077 326.444,187.077 327.047,187.438 327.495,187.879 327.942,188.32 330.356,190.002 332.859,191.616 335.362,193.231 337.804,194.947 338.287,195.43 338.77,195.913 339.422,196.308 339.736,196.308 340.051,196.308 340.308,197.287 340.308,198.483 340.308,200.507 339.107,201.875 323.154,218.022 313.719,227.571 304.686,236.838 303.08,238.615 299.726,242.325 299.962,242.261 295.96,240.54 L 292.923,239.233 292.923,235.711 C 292.923,231.766 291.78,228.95 289.427,227.099 L 287.853,225.861 288.94,223.546 C 290.761,219.667 294.82,210.845 295.385,209.538 295.677,208.862 297.458,205.044 299.343,201.055 301.227,197.065 302.773,193.604 302.779,193.362 302.828,191.007 308.213,182.466 309.923,182.032 310.98,181.763 312.191,181.127 312.613,180.618 313.799,179.189 314.771,179.466 319.558,182.599 M 166.0,197.066 C 168.328,198.606 169.846,200.044 169.846,200.708 169.846,206.505 179.984,207.954 183.46,202.654 184.486,201.091 184.588,201.06 185.01,202.183 185.259,202.844 187.21,206.22 189.347,209.686 191.483,213.151 193.231,216.201 193.231,216.463 193.231,216.725 194.21,218.393 195.406,220.17 L 197.582,223.4 194.022,223.059 C 192.064,222.871 188.385,222.467 185.846,222.162 183.308,221.857 178.323,221.3 174.769,220.923 160.72,219.435 158.777,219.04 158.493,217.616 158.349,216.896 158.072,211.185 157.876,204.923 157.68,198.662 157.342,192.87 157.123,192.052 156.735,190.597 156.784,190.607 159.44,192.543 160.933,193.631 163.885,195.666 166.0,197.066 M 67.83,197.511 C 69.277,198.173 73.725,200.25 77.715,202.126 81.704,204.003 85.102,205.538 85.266,205.538 85.429,205.538 87.843,206.609 90.628,207.917 93.413,209.225 97.379,211.063 99.44,212.0 L 103.188,213.704 102.91,216.596 C 102.607,219.747 103.663,222.522 106.199,225.238 L 107.642,226.784 103.02,230.161 C 100.478,232.019 98.181,233.616 97.915,233.71 97.65,233.804 94.964,231.394 91.947,228.353 88.93,225.313 81.111,217.441 74.572,210.859 63.462,199.679 62.735,198.808 63.489,197.6 64.476,196.019 64.562,196.017 67.83,197.511 M 78.611,217.673 C 88.238,227.394 95.807,235.449 95.431,235.574 95.055,235.7 94.399,236.124 93.974,236.516 92.407,237.964 88.268,241.052 86.971,241.742 86.236,242.133 85.263,242.801 84.809,243.227 84.355,243.652 82.603,244.959 80.915,246.132 79.227,247.305 77.48,248.62 77.033,249.055 76.586,249.49 76.015,249.846 75.764,249.846 75.514,249.846 74.769,250.331 74.108,250.923 71.245,253.49 70.971,253.604 69.377,252.878 68.433,252.448 67.585,251.322 67.161,249.937 65.382,244.121 63.193,236.295 62.488,233.231 62.059,231.369 61.011,227.215 60.158,224.0 59.306,220.785 58.122,215.108 57.529,211.385 56.935,207.662 56.326,203.917 56.176,203.064 55.915,201.591 57.403,200.579 60.554,200.087 60.858,200.039 68.984,207.953 78.611,217.673 M 222.057,201.193 C 229.958,201.502 236.51,201.845 236.617,201.955 236.831,202.172 233.027,206.358 222.154,217.869 L 215.077,225.362 211.385,224.964 C 209.354,224.745 205.888,224.406 203.683,224.211 L 199.675,223.855 197.383,219.774 C 196.122,217.529 194.255,214.308 193.233,212.615 192.212,210.923 190.788,208.431 190.069,207.077 189.35,205.723 188.245,203.88 187.612,202.982 185.39,199.827 185.573,199.774 197.077,200.22 202.915,200.447 214.156,200.885 222.057,201.193 M 342.929,205.61 C 342.762,206.248 342.381,206.769 342.082,206.769 341.783,206.769 341.538,207.035 341.538,207.361 341.538,207.686 339.983,210.524 338.082,213.668 336.182,216.812 334.075,220.354 333.401,221.538 332.728,222.723 331.956,223.969 331.686,224.308 331.416,224.646 330.519,226.169 329.692,227.692 328.865,229.215 326.992,232.4 325.53,234.769 324.068,237.138 322.292,240.185 321.584,241.538 320.375,243.851 320.11,244.012 317.231,244.194 315.18,244.323 313.535,244.868 312.26,245.841 L 310.353,247.295 307.023,245.745 C 302.259,243.527 301.996,243.383 301.917,242.944 301.635,241.368 341.133,202.654 342.142,203.518 342.763,204.049 343.102,204.95 342.929,205.61 M 350.447,207.846 C 350.197,208.777 349.779,210.508 349.52,211.692 349.26,212.877 348.714,215.369 348.308,217.231 347.901,219.092 347.314,221.723 347.003,223.077 346.692,224.431 346.045,227.477 345.566,229.846 345.086,232.215 344.14,236.646 343.463,239.692 342.786,242.738 341.914,246.689 341.525,248.47 340.801,251.786 339.635,253.538 338.155,253.538 335.723,253.538 334.1,258.166 335.475,261.182 336.104,262.565 335.916,263.078 333.71,265.98 332.351,267.768 330.725,270.062 330.096,271.077 329.466,272.092 328.788,273.062 328.589,273.231 328.39,273.4 327.289,274.923 326.142,276.615 324.996,278.308 323.697,280.06 323.256,280.51 322.815,280.959 322.141,281.911 321.759,282.625 321.377,283.338 320.819,284.217 320.52,284.577 319.602,285.679 313.58,294.021 312.884,295.154 312.27,296.153 312.055,296.136 309.458,294.879 306.336,293.368 304.829,293.241 301.574,294.216 299.321,294.891 299.267,294.863 284.888,285.538 276.953,280.393 270.258,275.993 270.009,275.762 269.509,275.297 299.143,244.923 300.096,244.923 300.645,244.923 306.143,247.345 308.308,248.54 308.871,248.85 309.304,250.16 309.418,251.895 309.73,256.646 312.717,258.897 318.154,258.48 323.482,258.071 325.8,251.506 322.343,246.615 321.685,245.685 321.443,244.923 321.804,244.923 322.166,244.923 322.462,244.644 322.462,244.304 322.462,243.963 324.579,240.155 327.167,235.842 329.756,231.529 332.498,226.888 333.261,225.528 334.024,224.168 336.06,220.756 337.786,217.944 339.511,215.133 340.923,212.719 340.923,212.579 340.923,212.44 341.778,210.937 342.822,209.24 345.186,205.398 351.412,204.26 350.447,207.846 M 55.991,216.256 C 56.003,217.831 55.651,217.34 55.145,215.077 54.843,213.729 54.9,213.48 55.356,214.154 55.7,214.662 55.985,215.608 55.991,216.256 M 130.344,217.798 C 132.608,218.11 137.369,218.671 140.923,219.046 149.444,219.944 156.476,220.886 156.758,221.169 156.883,221.294 157.244,227.313 157.56,234.544 157.876,241.776 158.316,250.765 158.539,254.521 158.943,261.343 158.942,261.35 157.472,261.786 156.27,262.143 141.662,265.949 132.308,268.343 129.289,269.115 129.231,269.098 129.231,267.428 129.231,266.406 127.986,264.7 125.3,262.043 L 121.37,258.154 120.686,241.885 C 120.031,226.317 120.051,225.561 121.155,224.346 122.823,222.509 123.692,220.613 123.692,218.81 123.692,216.991 124.07,216.934 130.344,217.798 M 57.8,224.253 C 58.486,229.186 58.262,231.639 57.522,227.294 57.3,225.99 56.868,223.954 56.563,222.769 56.257,221.585 56.014,219.923 56.022,219.077 56.051,216.153 57.096,219.196 57.8,224.253 M 172.308,222.48 C 181.476,223.33 188.754,224.115 195.461,224.978 198.193,225.33 198.744,225.641 199.587,227.307 201.376,230.843 203.378,234.149 204.0,234.594 204.974,235.291 203.322,237.473 196.445,244.574 L 190.12,251.104 188.752,249.646 C 182.487,242.965 170.462,247.298 170.462,256.235 170.462,258.139 170.231,258.488 168.769,258.808 167.838,259.011 166.385,259.409 165.538,259.692 159.955,261.563 160.25,262.17 159.72,247.692 159.534,242.615 159.204,234.473 158.986,229.597 L 158.59,220.733 160.68,221.165 C 161.829,221.402 167.062,221.994 172.308,222.48 M 208.09,226.286 L 213.41,226.635 211.474,228.797 C 206.132,234.763 206.109,234.769 203.906,230.846 203.089,229.392 201.946,227.478 201.366,226.593 200.343,225.031 200.348,224.997 201.54,225.459 202.216,225.722 205.163,226.094 208.09,226.286 M 118.979,241.341 L 119.36,255.912 109.526,245.97 C 100.713,237.059 98.606,234.462 100.192,234.462 100.466,234.462 101.233,233.977 101.894,233.385 106.086,229.633 109.961,227.692 113.276,227.683 115.113,227.678 117.023,227.416 117.521,227.101 118.702,226.354 118.548,224.848 118.979,241.341 M 225.846,228.306 C 229.4,228.685 234.385,229.241 236.923,229.541 239.462,229.841 243.615,230.249 246.154,230.447 259.055,231.454 272.082,233.35 269.846,233.897 267.312,234.516 257.577,237.093 250.154,239.11 246.769,240.029 242.477,241.136 240.615,241.568 238.754,242.0 235.492,242.821 233.366,243.391 230.313,244.21 229.312,244.271 228.602,243.681 226.424,241.873 221.408,242.759 219.087,245.361 215.782,249.066 214.625,249.078 212.356,245.427 211.314,243.751 210.462,242.245 210.462,242.08 210.462,241.916 209.769,240.762 208.923,239.517 206.818,236.418 206.824,236.4 211.725,231.479 215.346,227.844 216.342,227.162 217.725,227.369 218.638,227.505 222.292,227.927 225.846,228.306 M 58.886,233.077 C 58.731,233.669 58.604,233.185 58.604,232.0 58.604,230.815 58.731,230.331 58.886,230.923 59.041,231.515 59.041,232.485 58.886,233.077 M 272.871,238.791 C 275.315,245.589 284.344,247.87 289.51,242.995 L 291.88,240.76 294.292,241.839 C 295.619,242.433 296.946,243.162 297.243,243.46 298.02,244.24 268.352,274.002 267.122,273.675 266.589,273.534 262.138,270.791 257.231,267.581 252.323,264.37 244.638,259.353 240.154,256.431 232.861,251.679 232.0,250.934 232.0,249.375 232.0,248.415 231.698,247.328 231.328,246.959 230.67,246.3 231.698,245.823 236.308,244.648 237.154,244.432 241.031,243.409 244.923,242.373 274.158,234.595 271.486,234.938 272.871,238.791 M 60.117,239.846 C 59.962,240.438 59.835,239.954 59.835,238.769 59.835,237.585 59.962,237.1 60.117,237.692 60.271,238.285 60.271,239.254 60.117,239.846 M 108.37,247.732 C 114.259,253.677 119.106,258.592 119.142,258.655 120.166,260.444 119.731,262.588 118.206,263.263 113.159,265.497 114.239,274.105 119.863,276.47 L 121.75,277.264 120.038,280.94 C 119.097,282.961 116.35,288.671 113.934,293.627 L 109.542,302.639 107.107,302.021 C 105.248,301.549 104.031,301.622 101.956,302.329 98.895,303.372 99.582,303.788 95.076,298.155 93.723,296.463 92.338,294.763 92.0,294.377 91.662,293.992 90.277,292.224 88.923,290.449 87.569,288.674 85.492,286.049 84.308,284.615 81.528,281.25 80.751,280.27 78.201,276.921 77.042,275.399 75.796,273.874 75.432,273.532 74.663,272.811 71.222,268.375 70.522,267.201 70.223,266.702 70.646,265.802 71.65,264.797 73.755,262.693 74.201,260.682 73.307,257.338 72.905,255.834 72.654,254.556 72.749,254.498 73.457,254.069 82.219,247.652 82.462,247.386 82.631,247.2 83.549,246.552 84.502,245.945 85.455,245.338 86.701,244.45 87.271,243.972 89.061,242.47 96.905,236.972 97.293,236.947 97.497,236.934 102.481,241.787 108.37,247.732 M 209.095,243.627 L 212.141,249.101 209.301,249.716 C 205.05,250.638 191.899,254.144 191.295,254.517 189.132,255.854 191.892,252.252 197.977,245.798 206.554,236.701 205.37,236.932 209.095,243.627 M 64.528,247.077 C 64.891,248.431 65.355,250.162 65.558,250.923 65.81,251.865 65.66,252.308 65.088,252.308 64.228,252.308 62.729,246.61 62.811,243.655 62.861,241.838 63.428,242.967 64.528,247.077 M 217.458,251.749 C 218.057,254.747 221.143,257.231 224.269,257.231 227.076,257.231 227.608,258.0 231.174,267.23 231.73,268.669 232.42,270.109 232.708,270.431 232.995,270.752 233.231,271.393 233.231,271.855 233.231,272.317 233.923,274.208 234.769,276.058 235.615,277.908 236.308,279.773 236.308,280.203 236.308,280.633 236.541,281.248 236.827,281.569 237.113,281.891 237.987,283.815 238.769,285.846 239.552,287.877 240.426,289.802 240.711,290.123 241.376,290.871 241.39,293.538 240.729,293.538 240.454,293.538 239.774,292.638 239.218,291.538 237.938,289.002 235.48,284.711 235.077,284.308 234.908,284.138 234.374,283.308 233.891,282.462 229.362,274.528 226.019,268.752 222.492,262.769 214.672,249.504 214.837,249.846 216.231,249.846 216.696,249.846 217.248,250.703 217.458,251.749 M 214.383,252.465 C 215.017,253.563 216.105,255.569 216.802,256.923 217.499,258.277 218.85,260.542 219.804,261.957 220.758,263.372 221.538,264.679 221.538,264.862 221.538,265.046 222.785,267.303 224.308,269.879 225.831,272.455 227.077,274.817 227.077,275.128 227.077,275.438 227.354,275.692 227.692,275.692 228.031,275.692 228.308,275.934 228.308,276.23 228.308,276.749 231.074,281.603 236.702,290.958 238.382,293.75 239.228,295.765 238.934,296.276 238.514,297.008 229.055,307.175 221.538,314.975 220.015,316.556 215.463,321.389 211.421,325.715 206.447,331.041 203.93,333.326 203.631,332.791 203.246,332.103 202.569,329.62 199.974,319.385 199.674,318.2 199.027,315.431 198.538,313.231 198.048,311.031 196.95,306.6 196.098,303.385 193.612,294.001 191.022,283.743 189.884,278.769 188.889,274.426 188.412,272.629 186.993,267.878 186.466,266.115 186.599,265.726 188.268,264.131 189.479,262.974 190.378,261.277 190.839,259.28 L 191.548,256.209 200.851,253.871 C 205.967,252.585 210.708,251.309 211.385,251.036 213.174,250.314 213.129,250.293 214.383,252.465 M 234.198,254.769 C 234.681,254.769 235.077,255.002 235.077,255.286 235.077,255.57 235.78,256.123 236.639,256.514 237.497,256.905 238.536,257.521 238.946,257.883 239.357,258.245 241.631,259.757 244.0,261.243 246.369,262.73 248.649,264.242 249.067,264.603 249.484,264.964 250.869,265.874 252.144,266.625 255.024,268.321 260.363,271.792 261.361,272.618 261.772,272.958 262.795,273.549 263.635,273.932 266.418,275.2 265.958,276.114 259.072,283.0 L 252.348,289.724 249.877,289.169 C 248.119,288.774 246.704,288.856 244.973,289.452 L 242.54,290.291 241.813,288.376 C 241.414,287.323 240.732,285.631 240.299,284.615 239.865,283.6 238.755,280.831 237.831,278.462 236.907,276.092 235.494,272.692 234.691,270.905 233.888,269.118 233.231,267.559 233.231,267.442 233.231,267.324 232.766,266.155 232.197,264.844 229.197,257.928 228.938,256.545 230.298,254.706 231.389,253.23 231.671,253.122 232.437,253.887 232.922,254.372 233.714,254.769 234.198,254.769 M 172.768,263.125 C 174.276,265.192 174.626,266.129 174.193,266.933 173.877,267.52 172.597,270.769 171.348,274.154 170.1,277.538 168.862,280.862 168.599,281.538 168.335,282.215 167.496,284.431 166.733,286.462 165.971,288.492 165.113,290.417 164.827,290.738 164.541,291.06 164.308,291.805 164.308,292.394 164.308,293.788 163.078,294.536 162.452,293.523 162.184,293.089 161.798,288.692 161.595,283.752 161.392,278.811 161.078,272.094 160.896,268.824 L 160.567,262.879 163.514,262.175 C 165.135,261.788 167.292,261.237 168.308,260.952 169.323,260.667 170.292,260.422 170.462,260.409 170.631,260.395 171.669,261.617 172.768,263.125 M 158.997,266.923 C 159.217,268.869 159.573,275.723 159.788,282.154 L 160.18,293.846 158.033,294.867 C 156.751,295.477 155.484,296.734 154.89,297.987 153.852,300.175 149.669,301.538 144.0,301.538 142.893,301.538 140.295,301.806 138.225,302.132 136.155,302.459 131.554,303.033 128.0,303.408 124.446,303.784 119.64,304.377 117.319,304.728 110.534,305.751 110.413,305.258 115.077,295.605 123.827,277.496 124.222,276.777 126.047,275.667 127.038,275.065 128.215,273.742 128.664,272.727 129.316,271.256 130.047,270.757 132.279,270.263 133.818,269.923 137.223,269.066 139.846,268.36 142.469,267.654 146.762,266.502 149.385,265.799 152.008,265.095 154.985,264.293 156.0,264.015 157.015,263.738 158.015,263.482 158.222,263.448 158.428,263.413 158.777,264.977 158.997,266.923 M 185.686,269.82 C 186.023,271.527 187.429,277.215 188.808,282.462 191.603,293.086 192.097,295.028 195.706,309.538 197.095,315.123 199.042,322.877 200.034,326.769 202.346,335.847 202.399,335.382 198.604,339.426 L 195.362,342.882 192.028,339.287 C 190.194,337.31 183.943,330.708 178.137,324.615 172.331,318.523 166.588,312.42 165.374,311.053 L 163.169,308.568 165.04,307.739 C 169.134,305.927 170.012,300.29 166.83,296.245 165.334,294.343 165.597,293.504 172.008,279.725 173.115,277.347 176.617,268.916 177.007,267.692 177.226,267.004 178.29,266.763 181.186,266.743 L 185.071,266.717 185.686,269.82 M 272.722,279.967 C 273.352,280.554 274.624,281.424 275.549,281.902 276.474,282.379 277.597,283.115 278.044,283.538 278.491,283.962 279.095,284.308 279.385,284.308 279.675,284.308 280.278,284.672 280.725,285.117 281.173,285.562 282.923,286.73 284.615,287.712 286.308,288.694 288.057,289.851 288.502,290.284 288.948,290.716 291.25,292.221 293.618,293.628 300.764,297.874 299.478,298.244 281.105,297.229 272.882,296.774 263.592,296.293 260.462,296.159 255.1,295.93 254.769,295.838 254.76,294.573 254.755,293.835 254.489,292.817 254.169,292.312 253.72,291.601 255.213,289.761 260.75,284.199 L 267.911,277.005 269.744,277.952 C 270.752,278.474 272.092,279.38 272.722,279.967 M 271.385,298.52 C 276.292,298.831 283.631,299.258 287.692,299.47 L 295.077,299.855 294.868,303.841 C 294.745,306.182 294.935,308.104 295.329,308.498 296.738,309.907 296.023,311.687 293.385,313.343 291.946,314.246 287.446,317.483 283.385,320.535 279.323,323.588 273.971,327.517 271.491,329.266 L 266.982,332.447 265.273,330.81 C 264.057,329.645 262.843,329.144 261.064,329.073 258.679,328.978 258.503,328.831 257.221,325.871 255.08,320.93 254.486,319.477 251.682,312.308 250.226,308.585 248.75,305.171 248.403,304.722 247.692,303.803 248.811,302.795 250.561,302.779 251.776,302.767 254.769,299.388 254.769,298.027 254.769,297.218 255.36,297.14 258.615,297.513 260.731,297.756 266.477,298.209 271.385,298.52 M 241.29,299.598 C 241.652,300.637 242.813,301.831 244.139,302.529 245.448,303.219 246.549,304.343 246.791,305.239 247.018,306.08 247.799,308.069 248.525,309.659 249.252,311.248 249.846,312.923 249.846,313.382 249.846,313.84 250.08,314.478 250.366,314.8 250.651,315.122 251.527,317.046 252.312,319.077 253.097,321.108 253.928,323.046 254.157,323.385 256.239,326.455 256.589,329.196 255.103,330.799 254.284,331.682 253.438,333.211 253.222,334.195 252.706,336.545 253.023,336.425 244.243,337.586 236.939,338.552 235.296,338.793 225.538,340.323 218.242,341.468 214.652,341.727 214.241,341.137 213.084,339.482 210.084,337.91 207.373,337.537 203.603,337.018 203.597,336.821 207.231,333.092 208.838,331.442 213.338,326.656 217.231,322.455 221.123,318.255 225.692,313.409 227.385,311.686 229.077,309.964 232.653,306.145 235.331,303.2 240.911,297.064 240.495,297.316 241.29,299.598 M 154.918,304.462 C 155.513,305.731 156.578,307.023 157.285,307.334 158.68,307.947 159.069,306.619 152.535,323.538 152.241,324.3 151.76,325.546 151.467,326.308 151.174,327.069 150.653,328.385 150.31,329.231 149.967,330.077 149.43,331.432 149.118,332.241 148.714,333.29 147.978,333.775 146.557,333.931 145.46,334.051 143.739,334.575 142.732,335.096 141.005,335.989 137.056,334.321 134.769,331.733 134.6,331.541 132.423,330.0 129.932,328.308 113.71,317.289 114.405,317.885 115.186,315.644 115.807,313.862 115.635,310.503 114.791,307.936 114.399,306.744 114.649,306.612 117.952,306.269 119.924,306.064 124.031,305.599 127.077,305.236 134.162,304.39 142.517,303.423 148.0,302.813 150.369,302.55 152.652,302.294 153.072,302.244 153.492,302.194 154.323,303.192 154.918,304.462 M 165.818,314.376 C 168.51,317.3 175.433,324.648 181.203,330.704 186.972,336.761 192.592,342.669 193.692,343.834 196.672,346.99 196.439,348.587 193.077,348.039 190.264,347.58 184.036,346.998 166.235,345.53 153.726,344.499 153.596,344.466 154.105,342.437 154.558,340.631 153.572,337.984 151.705,336.0 L 150.257,334.462 152.302,329.231 C 153.427,326.354 155.377,321.231 156.635,317.846 160.609,307.155 159.541,307.558 165.818,314.376 M 253.429,338.885 C 253.232,339.908 252.25,340.172 238.769,342.831 236.908,343.198 234.277,343.727 232.923,344.007 231.569,344.287 228.108,344.954 225.231,345.489 222.354,346.024 219.251,346.63 218.336,346.836 216.91,347.156 216.613,346.976 216.262,345.576 215.712,343.385 215.535,343.466 223.148,342.459 230.553,341.48 235.521,340.768 242.462,339.689 250.695,338.409 253.227,338.001 253.43,337.923 253.539,337.881 253.539,338.313 253.429,338.885" />
</g>
</svg>