<?xml version="1.0" encoding="utf-8"?>
<!-- Created by sK1 2.0rc4 (https://sk1project.net/) -->
<svg xmlns="http://www.w3.org/2000/svg" height="132.8px" width="400.0px" version="1.1" xmlns:xlink="http://www.w3.org/1999/xlink" id="b9acad38-997d-11eb-8f0e-3497f655573b">

<g>
	<path style="fill-rule:evenodd;fill:#ffffff;" d="M 92.038,23.618 L 91.66,23.691 91.705,27.22 91.75,30.75 95.708,30.795 99.667,30.839 99.667,41.586 99.667,52.333 103.25,52.333 106.833,52.333 106.833,41.586 106.833,30.839 110.792,30.795 114.75,30.75 114.795,27.232 114.84,23.715 113.812,23.607 C 112.69,23.49 92.653,23.5 92.038,23.618 M 130.458,23.619 L 130.0,23.689 130.0,38.011 130.0,52.333 133.583,52.333 137.167,52.333 137.167,38.021 137.167,23.708 136.646,23.604 C 136.087,23.492 131.218,23.504 130.458,23.619 M 155.542,23.622 L 154.833,23.686 154.833,38.01 154.833,52.333 158.833,52.333 162.833,52.333 162.846,45.708 C 162.854,42.065 162.897,39.177 162.944,39.292 162.99,39.406 163.172,39.5 163.347,39.5 163.577,39.5 163.667,39.617 163.667,39.917 163.667,40.146 163.817,40.483 164.0,40.667 164.183,40.85 164.333,41.106 164.333,41.236 164.333,41.692 164.538,42.0 164.842,42.0 165.082,42.0 165.158,42.151 165.199,42.708 165.241,43.292 165.315,43.426 165.616,43.469 165.925,43.513 165.99,43.643 166.033,44.302 166.075,44.961 166.141,45.092 166.449,45.135 166.749,45.178 166.824,45.313 166.866,45.885 166.908,46.464 166.981,46.592 167.292,46.637 167.58,46.678 167.667,46.799 167.667,47.165 167.667,47.793 167.821,48.167 168.08,48.167 168.197,48.167 168.337,48.392 168.392,48.667 168.463,49.025 168.588,49.167 168.829,49.167 169.118,49.167 169.167,49.275 169.167,49.917 169.167,50.601 169.202,50.667 169.574,50.667 169.942,50.667 169.987,50.744 170.033,51.458 L 170.083,52.25 174.042,52.295 178.0,52.339 178.0,38.025 178.0,23.71 177.375,23.607 C 176.559,23.472 172.025,23.47 171.354,23.604 L 170.833,23.708 170.833,30.914 170.833,38.12 170.425,38.042 C 170.071,37.975 170.01,37.861 169.967,37.191 169.925,36.539 169.859,36.408 169.551,36.365 169.251,36.322 169.176,36.187 169.134,35.615 169.092,35.036 169.019,34.908 168.708,34.863 168.393,34.819 168.333,34.707 168.333,34.161 168.333,33.682 168.246,33.465 168.0,33.333 167.817,33.235 167.667,33.016 167.667,32.847 167.667,32.677 167.479,32.415 167.25,32.265 166.938,32.061 166.833,31.847 166.833,31.413 166.833,30.909 166.78,30.833 166.426,30.833 166.058,30.833 166.013,30.756 165.967,30.042 165.924,29.366 165.862,29.242 165.542,29.197 165.217,29.151 165.167,29.044 165.167,28.405 165.167,27.729 165.132,27.667 164.75,27.667 164.368,27.667 164.333,27.605 164.333,26.928 164.333,26.336 164.267,26.168 164.0,26.083 163.817,26.025 163.667,25.844 163.667,25.68 163.667,25.516 163.479,25.18 163.25,24.932 163.021,24.685 162.833,24.31 162.833,24.098 162.833,23.554 159.043,23.307 155.542,23.622 M 99.667,80.75 C 99.667,81.139 99.611,81.167 98.833,81.167 98.056,81.167 98.0,81.194 98.0,81.583 98.0,81.965 97.938,82.0 97.261,82.0 96.669,82.0 96.502,82.066 96.417,82.333 96.358,82.517 96.166,82.667 95.989,82.667 95.756,82.667 95.667,82.783 95.667,83.083 95.667,83.417 95.583,83.5 95.25,83.5 94.92,83.5 94.833,83.584 94.833,83.905 94.833,84.198 94.73,84.325 94.458,84.363 94.118,84.412 94.079,84.52 94.034,85.525 93.989,86.546 93.953,86.642 93.576,86.737 92.928,86.899 92.935,91.143 93.583,91.568 93.923,91.791 94.0,91.976 94.0,92.574 94.0,93.521 94.129,93.833 94.518,93.833 94.743,93.833 94.833,93.952 94.833,94.25 94.833,94.583 94.917,94.667 95.25,94.667 95.583,94.667 95.667,94.75 95.667,95.083 95.667,95.465 95.729,95.5 96.405,95.5 97.044,95.5 97.151,95.551 97.197,95.875 97.232,96.122 97.384,96.269 97.644,96.306 97.861,96.336 98.074,96.497 98.117,96.663 98.202,96.987 98.813,97.167 99.835,97.167 100.321,97.167 100.481,97.241 100.548,97.5 100.627,97.803 100.776,97.833 102.151,97.833 103.657,97.833 103.667,97.836 103.667,98.25 103.667,98.657 103.694,98.667 104.917,98.667 105.926,98.667 106.167,98.716 106.167,98.921 106.167,99.208 106.811,99.5 107.447,99.5 108.081,99.5 109.167,100.646 109.167,101.314 109.167,101.668 109.086,101.833 108.913,101.833 108.774,101.833 108.577,102.014 108.476,102.235 108.356,102.5 108.102,102.673 107.732,102.742 107.423,102.8 107.092,102.994 106.996,103.174 106.707,103.714 102.881,103.669 102.803,103.125 102.77,102.89 102.616,102.731 102.392,102.699 102.195,102.671 101.996,102.502 101.949,102.324 101.899,102.133 101.721,102.0 101.516,102.0 101.255,102.0 101.167,101.895 101.167,101.583 101.167,101.25 101.083,101.167 100.75,101.167 100.346,101.167 100.333,101.132 100.333,100.018 100.333,98.575 100.617,98.667 96.174,98.667 L 92.542,98.667 92.438,99.188 C 92.134,100.706 92.368,102.667 92.853,102.667 93.128,102.667 93.167,102.8 93.167,103.754 93.167,104.761 93.198,104.853 93.583,105.0 93.838,105.097 94.0,105.289 94.0,105.496 94.0,105.745 94.109,105.833 94.417,105.833 94.75,105.833 94.833,105.917 94.833,106.25 94.833,106.583 94.917,106.667 95.25,106.667 95.583,106.667 95.667,106.75 95.667,107.083 95.667,107.388 95.756,107.5 95.997,107.5 96.21,107.5 96.364,107.648 96.432,107.917 96.506,108.213 96.649,108.333 96.926,108.333 97.141,108.333 97.518,108.521 97.766,108.75 98.102,109.062 98.398,109.167 98.941,109.167 99.556,109.167 99.667,109.218 99.667,109.5 99.667,109.826 99.778,109.833 104.833,109.833 109.889,109.833 110.0,109.826 110.0,109.5 110.0,109.224 110.111,109.167 110.646,109.167 111.731,109.167 112.333,108.988 112.333,108.667 112.333,108.455 112.519,108.346 113.017,108.267 113.494,108.19 113.726,108.061 113.784,107.838 113.83,107.662 114.028,107.496 114.225,107.468 114.422,107.44 114.655,107.253 114.743,107.052 114.831,106.851 115.03,106.654 115.184,106.614 115.36,106.568 115.506,106.292 115.577,105.87 115.656,105.406 115.789,105.173 116.012,105.115 116.272,105.047 116.333,104.881 116.333,104.243 116.333,103.616 116.419,103.376 116.75,103.069 117.156,102.692 117.167,102.625 117.167,100.341 L 117.167,98.0 116.75,98.0 C 116.364,98.0 116.333,97.942 116.333,97.207 116.333,96.612 116.255,96.365 116.021,96.218 115.849,96.111 115.656,95.747 115.593,95.41 115.519,95.017 115.368,94.768 115.171,94.716 115.002,94.672 114.828,94.499 114.784,94.331 114.728,94.115 114.48,93.992 113.936,93.911 113.334,93.821 113.167,93.727 113.167,93.481 113.167,93.233 113.044,93.167 112.587,93.167 112.153,93.167 111.939,93.062 111.735,92.75 111.499,92.39 111.338,92.333 110.552,92.333 109.671,92.333 109.167,92.095 109.167,91.679 109.167,91.568 108.697,91.5 107.925,91.5 106.832,91.5 106.63,91.45 106.234,91.083 105.846,90.723 105.63,90.667 104.642,90.667 103.611,90.667 103.5,90.634 103.5,90.333 103.5,90.076 103.389,90.0 103.014,90.0 102.31,90.0 102.0,89.841 102.0,89.482 102.0,89.257 101.881,89.167 101.583,89.167 101.052,89.167 100.977,88.416 101.491,88.253 101.67,88.196 101.861,88.008 101.916,87.835 101.971,87.663 102.181,87.498 102.383,87.469 102.616,87.436 102.769,87.28 102.803,87.042 102.855,86.677 102.91,86.667 104.845,86.667 L 106.833,86.667 106.833,87.083 C 106.833,87.417 106.917,87.5 107.25,87.5 107.583,87.5 107.667,87.583 107.667,87.917 107.667,88.212 107.757,88.333 107.977,88.333 108.231,88.333 108.304,88.504 108.385,89.288 108.528,90.674 108.508,90.667 112.365,90.667 116.209,90.667 116.333,90.622 116.333,89.234 116.333,88.609 116.272,88.453 116.0,88.382 115.711,88.306 115.667,88.154 115.667,87.251 115.667,85.746 115.522,85.167 115.146,85.167 114.945,85.167 114.833,85.048 114.833,84.835 114.833,84.652 114.665,84.31 114.458,84.074 114.252,83.838 114.043,83.481 113.993,83.281 113.94,83.065 113.748,82.894 113.525,82.862 113.317,82.832 113.1,82.682 113.044,82.529 112.902,82.144 112.661,82.006 112.128,82.003 111.783,82.001 111.648,81.9 111.568,81.583 111.476,81.214 111.375,81.166 110.69,81.164 110.085,81.162 109.831,81.071 109.524,80.747 L 109.132,80.333 104.399,80.333 99.667,80.333 99.667,80.75 M 133.244,80.54 C 133.2,80.656 133.183,87.125 133.207,94.917 L 133.25,109.083 142.0,109.083 150.75,109.083 150.75,105.917 150.75,102.75 145.958,102.706 141.167,102.662 141.167,100.664 141.167,98.667 145.583,98.667 150.0,98.667 150.0,95.083 150.0,91.5 145.583,91.5 141.167,91.5 141.167,89.503 141.167,87.505 145.958,87.461 150.75,87.417 150.75,83.917 150.75,80.417 142.037,80.374 C 135.155,80.339 133.307,80.374 133.244,80.54 M 168.41,80.542 C 168.366,80.656 168.35,87.125 168.374,94.917 L 168.417,109.083 172.0,109.083 175.583,109.083 175.672,105.583 C 175.72,103.658 175.777,102.177 175.797,102.292 175.817,102.406 175.94,102.5 176.07,102.5 176.2,102.5 176.356,102.725 176.417,103.0 176.492,103.344 176.626,103.5 176.847,103.5 177.078,103.5 177.167,103.617 177.167,103.924 177.167,104.158 177.354,104.536 177.583,104.765 177.813,104.994 178.0,105.328 178.0,105.508 178.0,105.744 178.114,105.833 178.417,105.833 178.753,105.833 178.833,105.916 178.833,106.261 178.833,106.82 179.115,107.333 179.423,107.333 179.574,107.333 179.667,107.497 179.667,107.766 179.667,108.054 179.775,108.226 179.991,108.283 180.169,108.329 180.338,108.528 180.366,108.725 180.417,109.083 188.38,109.39 189.634,109.083 190.195,108.946 190.116,107.612 189.542,107.53 189.27,107.492 189.167,107.365 189.167,107.072 189.167,106.751 189.08,106.667 188.75,106.667 188.422,106.667 188.333,106.582 188.333,106.269 188.333,106.014 188.216,105.841 188.005,105.786 187.771,105.725 187.644,105.502 187.567,105.017 187.486,104.51 187.38,104.333 187.157,104.333 186.972,104.333 186.836,104.189 186.803,103.958 186.769,103.717 186.616,103.564 186.375,103.53 186.104,103.492 186.0,103.365 186.0,103.072 186.0,102.753 185.913,102.667 185.593,102.667 185.244,102.667 185.18,102.579 185.135,102.042 185.097,101.582 184.984,101.373 184.708,101.252 184.478,101.151 184.333,100.942 184.333,100.71 184.333,100.449 184.235,100.333 184.012,100.333 183.805,100.333 183.671,100.199 183.637,99.958 183.602,99.717 183.449,99.564 183.208,99.53 182.399,99.415 182.725,98.667 183.583,98.667 184.272,98.667 184.333,98.633 184.333,98.25 184.333,97.917 184.417,97.833 184.75,97.833 185.051,97.833 185.167,97.744 185.167,97.512 185.167,97.305 185.301,97.171 185.542,97.137 185.783,97.102 185.936,96.949 185.97,96.708 186.008,96.44 186.135,96.333 186.419,96.333 186.765,96.333 186.821,96.245 186.865,95.625 186.905,95.078 187.002,94.879 187.292,94.752 187.598,94.618 187.667,94.455 187.667,93.862 187.667,93.276 187.731,93.119 188.0,93.048 188.506,92.916 188.515,87.515 188.01,87.01 187.815,86.815 187.666,86.402 187.635,85.968 187.592,85.369 187.521,85.241 187.208,85.197 186.915,85.155 186.833,85.035 186.833,84.644 186.833,84.021 186.565,83.5 186.244,83.5 186.11,83.5 186.0,83.351 186.0,83.17 186.0,82.96 185.854,82.803 185.599,82.739 185.379,82.684 185.161,82.495 185.115,82.319 185.05,82.071 184.881,82.0 184.361,82.0 183.792,82.0 183.682,81.943 183.637,81.625 183.591,81.304 183.467,81.243 182.783,81.199 182.215,81.163 181.952,81.066 181.878,80.866 181.821,80.71 181.694,80.528 181.595,80.461 181.259,80.231 168.499,80.309 168.41,80.542 M 202.833,81.917 C 202.833,83.494 202.835,83.5 203.25,83.5 203.655,83.5 203.667,83.533 203.667,84.667 203.667,85.722 203.698,85.833 204.0,85.833 204.268,85.833 204.333,85.944 204.333,86.403 204.333,87.188 204.48,87.5 204.851,87.5 205.122,87.5 205.167,87.628 205.167,88.403 205.167,89.521 205.28,89.833 205.684,89.833 205.952,89.833 206.0,89.96 206.0,90.667 206.0,91.44 206.029,91.5 206.409,91.5 206.798,91.5 206.821,91.555 206.867,92.625 206.912,93.647 206.951,93.755 207.292,93.803 207.623,93.85 207.667,93.953 207.667,94.678 207.667,95.389 207.712,95.5 208.0,95.5 208.267,95.5 208.333,95.611 208.333,96.063 208.333,97.037 208.534,97.707 208.85,97.789 209.074,97.848 209.162,98.063 209.2,98.642 209.242,99.3 209.306,99.425 209.625,99.47 209.957,99.517 210.0,99.619 210.0,100.356 210.0,101.282 210.22,101.833 210.589,101.833 210.771,101.833 210.833,102.046 210.833,102.667 210.833,103.444 210.861,103.5 211.25,103.5 211.648,103.5 211.667,103.545 211.667,104.491 211.667,105.265 211.734,105.529 211.976,105.699 212.162,105.83 212.331,106.23 212.402,106.708 212.495,107.331 212.588,107.5 212.834,107.5 213.091,107.5 213.158,107.645 213.199,108.292 L 213.25,109.083 216.792,109.128 220.333,109.173 220.333,108.756 C 220.333,108.451 220.445,108.312 220.75,108.235 221.144,108.136 221.167,108.068 221.167,106.982 221.167,105.868 221.179,105.833 221.583,105.833 221.964,105.833 222.0,105.77 222.0,105.11 222.0,104.5 222.065,104.357 222.417,104.197 222.798,104.023 222.833,103.917 222.833,102.932 222.833,101.944 222.864,101.852 223.208,101.803 223.518,101.759 223.592,101.63 223.634,101.059 223.672,100.539 223.765,100.347 224.009,100.283 224.281,100.212 224.333,100.049 224.333,99.278 224.333,98.495 224.395,98.309 224.75,98.03 225.071,97.777 225.167,97.548 225.167,97.029 225.167,96.458 225.224,96.348 225.542,96.303 225.864,96.257 225.924,96.135 225.969,95.425 226.007,94.819 226.129,94.493 226.427,94.194 226.734,93.888 226.833,93.609 226.833,93.061 226.833,92.533 226.9,92.333 227.077,92.333 227.4,92.333 227.667,91.811 227.667,91.178 227.667,90.889 227.812,90.522 228.0,90.333 228.243,90.09 228.333,89.778 228.333,89.178 228.333,88.453 228.377,88.35 228.708,88.303 229.028,88.258 229.091,88.134 229.134,87.467 229.172,86.88 229.261,86.659 229.491,86.586 229.847,86.473 229.995,86.028 229.998,85.053 230.0,84.458 230.055,84.349 230.375,84.303 230.694,84.258 230.758,84.134 230.8,83.476 230.838,82.891 230.925,82.682 231.156,82.621 231.474,82.538 231.679,81.493 231.532,80.708 L 231.461,80.333 227.564,80.333 223.667,80.333 223.667,80.75 C 223.667,81.083 223.583,81.167 223.25,81.167 222.861,81.167 222.833,81.222 222.833,82.0 222.833,82.636 222.773,82.833 222.579,82.833 222.245,82.833 222.0,83.508 222.0,84.428 222.0,85.042 221.947,85.167 221.684,85.167 221.28,85.167 221.167,85.479 221.167,86.597 221.167,87.369 221.121,87.5 220.854,87.5 220.519,87.5 220.333,88.069 220.333,89.098 220.333,89.484 220.231,89.71 220.0,89.833 219.747,89.969 219.667,90.182 219.667,90.716 219.667,91.287 219.595,91.452 219.292,91.585 218.964,91.729 218.91,91.893 218.867,92.875 218.821,93.945 218.798,94.0 218.409,94.0 218.014,94.0 218.0,94.04 218.0,95.155 218.0,96.226 217.973,96.314 217.625,96.363 217.305,96.409 217.243,96.533 217.199,97.208 217.148,98.006 217.08,98.084 216.597,97.899 216.394,97.821 216.333,97.549 216.333,96.717 216.333,95.776 216.29,95.624 216.0,95.548 215.753,95.484 215.667,95.321 215.667,94.918 215.667,93.951 215.465,93.293 215.141,93.208 214.903,93.146 214.833,92.968 214.833,92.422 214.833,91.899 214.725,91.598 214.417,91.266 214.089,90.912 214.0,90.64 214.0,89.991 214.0,89.223 213.972,89.167 213.583,89.167 213.179,89.167 213.167,89.133 213.167,88.003 213.167,86.901 213.145,86.834 212.75,86.735 212.365,86.638 212.333,86.557 212.333,85.65 212.333,84.85 212.272,84.631 212.0,84.461 211.78,84.324 211.667,84.073 211.667,83.724 211.667,82.978 211.514,82.667 211.149,82.667 210.878,82.667 210.833,82.539 210.833,81.764 210.833,80.226 211.141,80.333 206.732,80.333 L 202.833,80.333 202.833,81.917 M 246.833,94.75 L 246.833,109.167 250.417,109.167 254.0,109.167 254.0,94.75 254.0,80.333 250.417,80.333 246.833,80.333 246.833,94.75 M 281.081,80.708 C 280.94,81.031 280.77,81.09 279.875,81.133 278.894,81.18 278.833,81.206 278.833,81.591 278.833,81.966 278.769,82.0 278.068,82.0 277.442,82.0 277.286,82.061 277.215,82.333 277.167,82.517 276.988,82.667 276.817,82.667 276.625,82.667 276.467,82.825 276.402,83.083 276.341,83.324 276.177,83.5 276.013,83.5 275.665,83.5 275.124,83.988 274.726,84.662 274.562,84.939 274.332,85.167 274.214,85.167 274.096,85.167 274.0,85.354 274.0,85.583 274.0,85.917 273.917,86.0 273.583,86.0 273.283,86.0 273.167,86.09 273.167,86.322 273.167,86.499 273.021,86.691 272.842,86.747 272.611,86.821 272.486,87.063 272.407,87.592 272.32,88.168 272.225,88.333 271.981,88.333 271.703,88.333 271.667,88.468 271.667,89.488 271.667,90.559 271.639,90.647 271.292,90.697 L 270.917,90.75 270.917,95.083 270.917,99.417 271.292,99.47 C 271.636,99.519 271.667,99.611 271.667,100.584 271.667,101.498 271.713,101.659 272.0,101.75 272.183,101.808 272.333,101.975 272.333,102.12 272.333,102.266 272.521,102.631 272.75,102.931 272.979,103.232 273.167,103.631 273.167,103.819 273.167,104.044 273.309,104.196 273.583,104.265 273.842,104.33 274.0,104.488 274.0,104.682 274.0,104.875 274.158,105.033 274.417,105.098 274.677,105.164 274.833,105.321 274.833,105.518 274.833,105.743 274.952,105.833 275.25,105.833 275.58,105.833 275.667,105.917 275.667,106.238 275.667,106.532 275.77,106.658 276.042,106.697 276.283,106.731 276.436,106.884 276.47,107.125 276.516,107.448 276.623,107.5 277.25,107.5 277.877,107.5 277.984,107.552 278.03,107.875 278.073,108.177 278.206,108.26 278.711,108.302 279.157,108.339 279.416,108.471 279.605,108.76 279.842,109.121 279.992,109.167 280.936,109.167 281.889,109.167 282.0,109.201 282.0,109.5 282.0,109.823 282.111,109.833 285.583,109.833 289.028,109.833 289.167,109.821 289.167,109.508 289.167,109.221 289.303,109.176 290.292,109.133 291.266,109.09 291.438,109.034 291.578,108.716 291.699,108.44 291.906,108.337 292.411,108.299 292.963,108.259 293.093,108.183 293.137,107.875 293.183,107.551 293.29,107.5 293.925,107.5 294.566,107.5 294.673,107.448 294.762,107.093 294.825,106.845 295.005,106.666 295.224,106.635 295.449,106.602 295.603,106.444 295.637,106.208 295.671,105.967 295.805,105.833 296.012,105.833 296.218,105.833 296.333,105.718 296.333,105.512 296.333,105.305 296.467,105.171 296.708,105.137 296.944,105.103 297.102,104.949 297.135,104.724 297.166,104.505 297.345,104.325 297.593,104.262 297.949,104.173 298.0,104.066 298.0,103.413 298.0,102.728 298.034,102.667 298.417,102.667 298.781,102.667 298.833,102.594 298.833,102.087 298.833,101.65 298.938,101.439 299.257,101.23 299.65,100.973 299.677,100.873 299.632,99.851 L 299.583,98.75 295.751,98.705 C 291.315,98.653 291.051,98.706 290.894,99.687 290.808,100.227 290.726,100.333 290.395,100.333 290.085,100.333 290.0,100.423 290.0,100.75 290.0,101.083 289.917,101.167 289.583,101.167 289.278,101.167 289.167,101.256 289.167,101.5 289.167,101.756 289.056,101.833 288.688,101.833 287.781,101.833 287.124,102.043 287.042,102.359 286.952,102.701 284.167,102.842 284.167,102.504 284.167,102.235 283.223,101.833 282.592,101.833 282.111,101.833 282.0,101.771 282.0,101.5 282.0,101.256 281.889,101.167 281.583,101.167 281.25,101.167 281.167,101.083 281.167,100.75 281.167,100.417 281.083,100.333 280.75,100.333 280.417,100.333 280.333,100.25 280.333,99.917 280.333,99.619 280.243,99.5 280.019,99.5 279.774,99.5 279.68,99.334 279.592,98.75 279.507,98.181 279.407,98.0 279.18,98.0 278.913,98.0 278.573,95.821 278.673,94.75 278.681,94.658 278.727,94.037 278.775,93.369 278.845,92.388 278.939,92.07 279.264,91.719 279.485,91.48 279.667,91.146 279.667,90.976 279.667,90.778 279.787,90.667 280.0,90.667 280.244,90.667 280.333,90.556 280.333,90.25 280.333,89.994 280.428,89.833 280.579,89.833 280.715,89.833 280.943,89.654 281.087,89.434 281.231,89.214 281.495,88.997 281.674,88.95 281.853,88.903 282.0,88.745 282.0,88.599 282.0,88.439 282.141,88.333 282.356,88.333 282.552,88.333 282.886,88.146 283.098,87.917 283.628,87.345 287.667,87.255 287.667,87.816 287.667,88.172 287.977,88.333 288.661,88.333 288.993,88.333 289.154,88.433 289.218,88.679 289.268,88.869 289.462,89.065 289.649,89.114 289.836,89.163 290.034,89.345 290.089,89.518 290.144,89.691 290.334,89.833 290.511,89.833 290.744,89.833 290.833,89.949 290.833,90.25 290.833,90.583 290.917,90.667 291.25,90.667 291.583,90.667 291.667,90.75 291.667,91.083 L 291.667,91.5 295.566,91.5 C 299.923,91.5 299.667,91.578 299.667,90.257 299.667,89.148 299.481,88.464 299.158,88.379 298.96,88.328 298.831,88.067 298.756,87.568 298.67,86.99 298.577,86.833 298.323,86.833 298.09,86.833 298.0,86.718 298.0,86.417 298.0,86.083 297.917,86.0 297.583,86.0 297.25,86.0 297.167,85.917 297.167,85.583 297.167,85.25 297.083,85.167 296.75,85.167 296.417,85.167 296.333,85.083 296.333,84.75 296.333,84.449 296.244,84.333 296.012,84.333 295.805,84.333 295.671,84.199 295.637,83.958 295.603,83.721 295.449,83.564 295.219,83.531 294.991,83.499 294.834,83.342 294.802,83.115 294.77,82.89 294.613,82.73 294.392,82.699 294.195,82.671 293.996,82.502 293.949,82.324 293.881,82.062 293.717,82.0 293.099,82.0 292.393,82.0 292.333,81.967 292.333,81.583 292.333,81.194 292.278,81.167 291.5,81.167 290.864,81.167 290.667,81.106 290.667,80.913 290.667,80.185 281.398,79.987 281.081,80.708 M 315.743,80.542 C 315.7,80.656 315.683,87.125 315.707,94.917 L 315.75,109.083 324.458,109.126 333.167,109.17 333.167,105.918 333.167,102.667 328.417,102.667 323.667,102.667 323.667,100.667 323.667,98.667 328.23,98.667 C 331.903,98.667 332.83,98.622 332.983,98.437 333.116,98.277 333.16,97.197 333.129,94.895 L 333.083,91.583 328.375,91.539 323.667,91.495 323.667,89.497 323.667,87.5 328.417,87.5 333.167,87.5 333.167,83.917 333.167,80.333 324.495,80.333 C 317.711,80.333 315.806,80.379 315.743,80.542 M 356.611,80.444 C 356.55,80.506 356.5,80.693 356.5,80.861 356.5,81.117 356.364,81.167 355.667,81.167 354.889,81.167 354.833,81.194 354.833,81.583 354.833,81.965 354.771,82.0 354.095,82.0 353.502,82.0 353.335,82.066 353.25,82.333 353.192,82.517 353.03,82.667 352.89,82.667 352.75,82.667 352.595,82.822 352.545,83.013 352.495,83.203 352.277,83.426 352.061,83.509 351.727,83.636 351.667,83.773 351.667,84.413 351.667,85.106 351.633,85.167 351.25,85.167 350.843,85.167 350.833,85.194 350.833,86.417 350.833,87.426 350.784,87.667 350.579,87.667 350.244,87.667 350.0,88.342 350.0,89.272 350.0,90.117 350.229,90.667 350.582,90.667 350.76,90.667 350.831,90.965 350.868,91.875 350.912,92.974 350.95,93.088 351.283,93.135 351.583,93.178 351.658,93.313 351.699,93.885 351.741,94.457 351.816,94.593 352.115,94.635 352.342,94.668 352.499,94.825 352.531,95.052 352.574,95.351 352.709,95.426 353.281,95.467 353.854,95.509 353.989,95.584 354.031,95.884 354.075,96.193 354.206,96.258 354.865,96.3 355.523,96.343 355.654,96.408 355.698,96.717 355.742,97.028 355.872,97.091 356.551,97.135 357.07,97.168 357.467,97.3 357.676,97.51 357.939,97.772 358.234,97.833 359.238,97.833 360.396,97.833 360.48,97.858 360.53,98.208 360.58,98.562 360.67,98.586 362.125,98.631 363.639,98.678 363.667,98.687 363.667,99.09 363.667,99.464 363.732,99.5 364.405,99.5 365.044,99.5 365.151,99.551 365.197,99.875 365.231,100.116 365.384,100.269 365.625,100.303 366.175,100.381 366.2,102.0 365.651,102.0 365.442,102.0 365.267,102.134 365.215,102.333 365.167,102.517 364.988,102.667 364.817,102.667 364.625,102.667 364.467,102.825 364.402,103.083 364.255,103.667 360.437,103.749 360.286,103.171 360.225,102.938 360.002,102.811 359.517,102.733 359.016,102.653 358.833,102.545 358.833,102.33 358.833,102.156 358.664,101.994 358.417,101.932 358.148,101.864 358.0,101.71 358.0,101.497 358.0,101.257 357.888,101.167 357.591,101.167 357.198,101.167 357.179,101.117 357.132,99.958 L 357.083,98.75 353.354,98.705 C 350.744,98.674 349.557,98.717 349.396,98.85 348.9,99.262 349.196,101.833 349.739,101.833 349.929,101.833 349.997,102.108 350.034,103.042 350.079,104.15 350.114,104.254 350.458,104.303 350.783,104.349 350.833,104.456 350.833,105.095 350.833,105.771 350.868,105.833 351.25,105.833 351.583,105.833 351.667,105.917 351.667,106.25 351.667,106.548 351.757,106.667 351.982,106.667 352.179,106.667 352.336,106.823 352.402,107.083 352.463,107.329 352.626,107.5 352.797,107.5 352.957,107.5 353.162,107.669 353.252,107.875 353.379,108.163 353.578,108.262 354.115,108.301 354.687,108.342 354.822,108.417 354.865,108.717 354.908,109.025 355.039,109.091 355.691,109.133 356.294,109.172 356.484,109.255 356.55,109.508 356.662,109.936 366.833,110.028 366.833,109.601 366.833,109.303 367.199,109.167 368.0,109.167 368.855,109.167 369.167,109.028 369.167,108.649 369.167,108.408 369.287,108.333 369.678,108.333 370.311,108.333 370.833,108.067 370.833,107.744 370.833,107.61 370.982,107.5 371.163,107.5 371.377,107.5 371.531,107.352 371.598,107.083 371.664,106.823 371.821,106.667 372.018,106.667 372.243,106.667 372.333,106.548 372.333,106.25 372.333,105.946 372.422,105.833 372.663,105.833 373.018,105.833 373.131,105.54 373.206,104.417 373.239,103.909 373.34,103.711 373.625,103.585 374.305,103.287 374.178,97.167 373.491,97.167 373.244,97.167 373.175,97.014 373.134,96.375 373.091,95.699 373.028,95.576 372.708,95.53 372.437,95.492 372.333,95.365 372.333,95.072 372.333,94.786 372.241,94.667 372.019,94.667 371.847,94.667 371.668,94.522 371.621,94.344 371.565,94.131 371.33,93.983 370.924,93.907 370.586,93.844 370.222,93.651 370.115,93.479 370.008,93.307 369.768,93.167 369.583,93.167 369.393,93.167 369.174,93.003 369.081,92.792 368.938,92.464 368.774,92.41 367.792,92.367 366.827,92.325 366.667,92.274 366.667,92.01 366.667,91.587 366.351,91.5 364.82,91.5 363.748,91.5 363.5,91.452 363.5,91.246 363.5,90.871 362.792,90.667 361.489,90.667 360.444,90.667 360.333,90.635 360.333,90.333 360.333,90.099 360.221,89.999 359.958,89.998 359.253,89.993 358.833,89.8 358.833,89.481 358.833,89.257 358.714,89.167 358.417,89.167 357.844,89.167 357.806,88.384 358.375,88.303 358.612,88.27 358.769,88.116 358.802,87.885 358.834,87.658 358.991,87.501 359.219,87.469 359.449,87.436 359.603,87.279 359.637,87.042 359.688,86.677 359.743,86.667 361.678,86.667 L 363.667,86.667 363.667,87.083 C 363.667,87.417 363.75,87.5 364.083,87.5 364.38,87.5 364.5,87.59 364.5,87.814 364.5,87.987 364.645,88.166 364.823,88.212 365.068,88.276 365.158,88.47 365.198,89.023 365.241,89.624 365.313,89.759 365.615,89.802 365.842,89.834 365.999,89.991 366.031,90.219 366.083,90.581 366.11,90.583 369.583,90.583 L 373.083,90.583 373.083,88.75 C 373.083,86.976 373.071,86.915 372.708,86.863 372.38,86.817 372.333,86.712 372.333,86.028 372.333,85.427 372.256,85.199 372.0,85.039 371.817,84.924 371.667,84.676 371.667,84.488 371.667,84.004 371.366,83.5 371.077,83.5 370.943,83.5 370.833,83.351 370.833,83.17 370.833,82.96 370.687,82.803 370.432,82.739 370.212,82.684 369.994,82.495 369.948,82.319 369.881,82.063 369.713,82.0 369.099,82.0 368.393,82.0 368.333,81.967 368.333,81.583 368.333,81.2 368.272,81.167 367.579,81.167 366.928,81.167 366.803,81.11 366.667,80.75 L 366.508,80.333 361.615,80.333 C 358.924,80.333 356.672,80.383 356.611,80.444 M 178.833,87.083 C 178.833,87.411 178.918,87.5 179.231,87.5 179.488,87.5 179.659,87.618 179.715,87.833 179.763,88.017 179.917,88.167 180.058,88.167 180.233,88.167 180.349,88.407 180.429,88.938 180.512,89.491 180.632,89.732 180.855,89.791 181.263,89.898 181.252,90.277 180.834,90.538 180.61,90.678 180.467,91.006 180.396,91.54 180.313,92.167 180.225,92.333 179.979,92.333 179.757,92.333 179.667,92.454 179.667,92.75 L 179.667,93.167 177.667,93.167 175.667,93.167 175.667,89.917 175.667,86.667 177.25,86.667 C 178.828,86.667 178.833,86.668 178.833,87.083" />
	<path style="fill-rule:evenodd;fill:#2656b5;" d="M 29.265,3.248 C 29.161,3.666 29.157,3.667 27.163,3.667 25.291,3.667 25.167,3.687 25.167,3.994 25.167,4.292 25.029,4.325 23.625,4.369 22.179,4.414 22.08,4.44 22.031,4.784 21.984,5.116 21.869,5.157 20.864,5.201 19.853,5.245 19.745,5.285 19.697,5.625 19.65,5.956 19.547,6.0 18.822,6.0 18.056,6.0 18.0,6.029 18.0,6.417 18.0,6.799 17.939,6.833 17.253,6.833 16.596,6.833 16.494,6.883 16.402,7.25 16.31,7.615 16.207,7.667 15.565,7.667 14.953,7.667 14.833,7.719 14.833,7.988 14.833,8.195 14.699,8.329 14.458,8.363 14.217,8.398 14.064,8.551 14.03,8.792 13.992,9.063 13.865,9.167 13.572,9.167 13.253,9.167 13.167,9.254 13.167,9.574 13.167,9.934 13.084,9.987 12.458,10.032 11.869,10.075 11.741,10.147 11.697,10.458 11.658,10.73 11.532,10.833 11.238,10.833 10.917,10.833 10.833,10.92 10.833,11.25 10.833,11.583 10.75,11.667 10.417,11.667 10.109,11.667 10.0,11.755 10.0,12.004 10.0,12.211 9.838,12.403 9.583,12.5 9.354,12.587 9.167,12.764 9.167,12.893 9.167,13.022 9.023,13.165 8.846,13.212 8.613,13.273 8.495,13.504 8.411,14.064 8.321,14.666 8.227,14.833 7.981,14.833 7.757,14.833 7.667,14.953 7.667,15.25 7.667,15.583 7.583,15.667 7.25,15.667 6.867,15.667 6.833,15.728 6.833,16.417 6.833,17.106 6.799,17.167 6.417,17.167 6.028,17.167 6.0,17.222 6.0,18.0 6.0,18.778 5.972,18.833 5.583,18.833 5.202,18.833 5.167,18.896 5.167,19.564 5.167,20.134 5.099,20.312 4.859,20.375 4.524,20.462 4.333,21.121 4.333,22.188 4.333,22.722 4.276,22.833 4.0,22.833 3.69,22.833 3.667,22.944 3.667,24.417 3.667,25.996 3.666,26.0 3.249,26.0 L 2.831,26.0 2.874,37.542 2.917,49.083 3.292,49.137 C 3.659,49.189 3.667,49.233 3.667,51.444 3.667,53.558 3.687,53.703 4.0,53.785 4.296,53.863 4.334,54.013 4.336,55.144 4.338,56.726 4.45,57.167 4.847,57.167 5.12,57.167 5.159,57.338 5.202,58.708 5.247,60.163 5.271,60.253 5.625,60.303 5.984,60.354 6.0,60.425 6.0,61.928 6.0,63.486 6.004,63.5 6.409,63.5 6.802,63.5 6.821,63.55 6.868,64.708 6.913,65.817 6.948,65.921 7.292,65.97 7.639,66.019 7.667,66.107 7.667,67.178 7.667,68.213 7.701,68.333 7.992,68.333 8.279,68.333 8.324,68.47 8.367,69.458 8.412,70.474 8.453,70.588 8.785,70.636 9.12,70.683 9.157,70.795 9.201,71.886 9.246,72.983 9.281,73.088 9.625,73.137 9.973,73.186 10.0,73.274 10.0,74.345 10.0,75.466 10.012,75.5 10.417,75.5 10.821,75.5 10.833,75.535 10.833,76.649 10.833,77.735 10.856,77.803 11.25,77.902 11.64,78.0 11.667,78.074 11.667,79.075 11.667,79.998 11.712,80.159 12.0,80.25 12.236,80.325 12.333,80.502 12.333,80.856 12.333,81.479 12.602,82.0 12.923,82.0 13.105,82.0 13.167,82.214 13.167,82.844 13.167,83.781 13.385,84.333 13.756,84.333 13.934,84.333 14.0,84.536 14.0,85.083 14.0,85.772 14.034,85.833 14.417,85.833 14.806,85.833 14.833,85.889 14.833,86.667 14.833,87.444 14.861,87.5 15.25,87.5 15.655,87.5 15.667,87.533 15.667,88.667 15.667,89.695 15.704,89.833 15.979,89.833 16.227,89.833 16.313,90.003 16.401,90.667 16.49,91.337 16.574,91.5 16.83,91.5 17.092,91.5 17.157,91.641 17.199,92.292 17.243,92.967 17.305,93.091 17.625,93.137 17.949,93.183 18.0,93.289 18.0,93.928 18.0,94.605 18.035,94.667 18.417,94.667 18.806,94.667 18.833,94.722 18.833,95.5 18.833,96.278 18.861,96.333 19.25,96.333 19.652,96.333 19.667,96.371 19.667,97.432 19.667,98.372 19.713,98.543 19.983,98.614 20.209,98.673 20.331,98.906 20.409,99.423 20.485,99.929 20.614,100.18 20.833,100.25 21.064,100.323 21.162,100.537 21.199,101.05 21.241,101.625 21.315,101.759 21.616,101.802 21.925,101.846 21.99,101.977 22.033,102.635 22.076,103.3 22.139,103.425 22.458,103.47 22.781,103.516 22.833,103.623 22.833,104.244 22.833,104.873 22.886,104.977 23.25,105.068 23.617,105.161 23.667,105.262 23.667,105.92 23.667,106.541 23.72,106.667 23.981,106.667 24.227,106.667 24.321,106.834 24.411,107.436 24.493,107.987 24.614,108.228 24.838,108.286 25.067,108.346 25.162,108.55 25.2,109.059 25.241,109.625 25.316,109.759 25.616,109.802 25.916,109.845 25.991,109.979 26.033,110.552 26.072,111.088 26.17,111.288 26.458,111.415 26.688,111.515 26.833,111.725 26.833,111.956 26.833,112.247 26.928,112.333 27.25,112.333 27.633,112.333 27.667,112.394 27.667,113.083 27.667,113.722 27.716,113.833 28.0,113.833 28.268,113.833 28.333,113.944 28.333,114.403 28.333,115.188 28.48,115.5 28.851,115.5 29.114,115.5 29.167,115.625 29.167,116.25 29.167,116.934 29.202,117.0 29.574,117.0 29.942,117.0 29.987,117.077 30.033,117.792 30.076,118.467 30.138,118.591 30.458,118.637 30.73,118.675 30.833,118.802 30.833,119.095 30.833,119.416 30.92,119.5 31.25,119.5 31.633,119.5 31.667,119.561 31.667,120.25 31.667,120.889 31.716,121.0 32.0,121.0 32.268,121.0 32.333,121.111 32.333,121.57 32.333,122.355 32.48,122.667 32.851,122.667 33.067,122.667 33.167,122.786 33.169,123.042 33.173,123.747 33.366,124.167 33.686,124.167 33.91,124.167 34.0,124.286 34.0,124.583 34.0,124.917 34.083,125.0 34.417,125.0 34.806,125.0 34.833,125.056 34.833,125.833 34.833,126.611 34.861,126.667 35.25,126.667 35.626,126.667 35.667,126.733 35.667,127.339 35.667,127.834 35.743,128.033 35.958,128.097 36.119,128.145 36.465,128.294 36.728,128.429 37.033,128.585 37.275,128.618 37.395,128.519 37.499,128.433 37.846,128.296 38.167,128.214 38.702,128.076 38.754,128.008 38.801,127.376 38.842,126.813 38.918,126.678 39.217,126.635 39.527,126.591 39.591,126.461 39.634,125.792 39.676,125.147 39.743,125.0 39.998,125.0 40.195,125.0 40.33,124.862 40.363,124.625 40.398,124.384 40.551,124.231 40.792,124.197 41.115,124.151 41.167,124.044 41.167,123.417 41.167,122.79 41.218,122.683 41.542,122.637 41.862,122.591 41.924,122.467 41.967,121.792 42.013,121.077 42.058,121.0 42.426,121.0 42.797,121.0 42.833,120.934 42.833,120.262 42.833,119.623 42.884,119.516 43.208,119.47 43.443,119.437 43.602,119.283 43.634,119.059 43.662,118.862 43.831,118.663 44.009,118.616 44.271,118.548 44.333,118.384 44.333,117.766 44.333,117.06 44.366,117.0 44.75,117.0 45.132,117.0 45.167,116.938 45.167,116.262 45.167,115.623 45.217,115.516 45.542,115.47 45.862,115.424 45.924,115.301 45.967,114.625 46.013,113.91 46.058,113.833 46.426,113.833 46.797,113.833 46.833,113.767 46.833,113.095 46.833,112.456 46.884,112.349 47.208,112.303 47.528,112.258 47.591,112.134 47.634,111.458 47.676,110.803 47.741,110.667 48.009,110.667 48.241,110.667 48.333,110.552 48.333,110.262 48.333,109.968 48.437,109.842 48.708,109.803 49.018,109.759 49.092,109.63 49.133,109.065 49.173,108.525 49.271,108.34 49.592,108.193 49.926,108.041 50.0,107.886 50.0,107.337 50.0,106.79 50.058,106.667 50.316,106.667 50.677,106.667 50.833,106.356 50.833,105.637 50.833,105.284 50.927,105.111 51.151,105.052 51.473,104.968 51.66,104.545 51.664,103.894 51.666,103.68 51.799,103.504 52.0,103.452 52.272,103.38 52.333,103.224 52.333,102.599 52.333,101.893 52.366,101.833 52.75,101.833 53.13,101.833 53.167,101.77 53.167,101.11 53.167,100.5 53.232,100.357 53.583,100.197 53.966,100.023 54.0,99.918 54.0,98.92 54.0,97.872 54.015,97.833 54.417,97.833 54.798,97.833 54.833,97.771 54.833,97.095 54.833,96.456 54.884,96.349 55.208,96.303 55.528,96.258 55.591,96.134 55.634,95.458 55.676,94.803 55.741,94.667 56.009,94.667 56.282,94.667 56.333,94.549 56.333,93.928 56.333,93.289 56.384,93.183 56.708,93.137 57.027,93.091 57.091,92.967 57.134,92.302 57.176,91.643 57.241,91.513 57.55,91.469 57.86,91.425 57.925,91.295 57.967,90.625 58.008,89.986 58.077,89.833 58.325,89.833 58.719,89.833 58.833,89.515 58.833,88.415 58.833,87.617 58.873,87.518 59.208,87.47 59.528,87.424 59.591,87.301 59.634,86.625 59.676,85.969 59.741,85.833 60.009,85.833 60.281,85.833 60.333,85.715 60.333,85.101 60.333,84.46 60.385,84.357 60.75,84.265 61.14,84.167 61.167,84.093 61.167,83.092 61.167,82.11 61.197,82.019 61.542,81.97 61.862,81.924 61.924,81.801 61.967,81.125 62.003,80.579 62.091,80.333 62.253,80.333 62.611,80.333 62.833,79.777 62.833,78.884 62.833,78.209 62.894,78.052 63.208,77.915 63.536,77.771 63.59,77.607 63.633,76.625 63.676,75.637 63.721,75.5 64.008,75.5 64.3,75.5 64.333,75.38 64.333,74.333 64.333,73.2 64.345,73.167 64.75,73.167 65.136,73.167 65.167,73.108 65.167,72.373 65.167,71.71 65.228,71.552 65.542,71.415 65.869,71.271 65.923,71.107 65.966,70.125 66.008,69.162 66.059,69.0 66.322,69.0 66.706,69.0 66.828,68.558 66.831,67.165 66.833,66.2 66.875,66.061 67.208,65.915 67.536,65.771 67.59,65.607 67.633,64.625 67.676,63.637 67.721,63.5 68.008,63.5 68.308,63.5 68.333,63.377 68.333,61.917 68.333,60.339 68.335,60.333 68.75,60.333 69.165,60.333 69.167,60.327 69.167,58.762 69.167,57.259 69.183,57.188 69.542,57.137 69.895,57.086 69.919,56.996 69.964,55.566 70.009,54.136 70.036,54.037 70.423,53.861 70.825,53.678 70.833,53.633 70.833,51.754 70.833,49.989 70.859,49.833 71.145,49.833 71.583,49.833 71.663,49.165 71.665,45.492 71.666,43.53 71.732,42.335 71.844,42.223 72.302,41.765 72.306,31.986 71.849,31.435 71.75,31.317 71.656,30.115 71.63,28.655 71.584,26.144 71.575,26.082 71.214,26.031 70.868,25.982 70.843,25.884 70.798,24.448 70.753,23.004 70.729,22.914 70.375,22.863 70.027,22.814 70.0,22.726 70.0,21.658 70.0,20.569 69.977,20.501 69.583,20.402 69.218,20.31 69.167,20.207 69.167,19.565 69.167,18.896 69.131,18.833 68.75,18.833 68.361,18.833 68.333,18.778 68.333,18.0 68.333,17.278 68.289,17.167 68.0,17.167 67.766,17.167 67.666,17.055 67.664,16.792 67.66,16.087 67.467,15.667 67.147,15.667 66.924,15.667 66.833,15.547 66.833,15.25 66.833,14.917 66.75,14.833 66.417,14.833 66.041,14.833 66.0,14.767 66.0,14.163 66.0,13.61 65.927,13.46 65.583,13.303 65.354,13.199 65.167,12.98 65.167,12.818 65.167,12.639 65.019,12.502 64.792,12.47 64.551,12.436 64.398,12.283 64.363,12.042 64.329,11.802 64.195,11.667 63.992,11.667 63.791,11.667 63.634,11.513 63.568,11.25 63.507,11.006 63.344,10.833 63.175,10.833 63.017,10.833 62.801,10.646 62.697,10.417 62.54,10.073 62.39,10.0 61.837,10.0 61.233,10.0 61.167,9.959 61.167,9.583 61.167,9.25 61.083,9.167 60.75,9.167 60.417,9.167 60.333,9.083 60.333,8.75 60.333,8.438 60.245,8.333 59.984,8.333 59.776,8.333 59.6,8.199 59.548,8.0 59.478,7.731 59.321,7.667 58.731,7.667 58.062,7.667 58.0,7.631 58.0,7.25 58.0,6.861 57.944,6.833 57.167,6.833 56.389,6.833 56.333,6.806 56.333,6.417 56.333,6.035 56.271,6.0 55.601,6.0 54.96,6.0 54.857,5.949 54.765,5.583 54.666,5.189 54.598,5.167 53.508,5.167 52.441,5.167 52.353,5.139 52.303,4.792 52.253,4.438 52.163,4.414 50.708,4.369 49.304,4.325 49.167,4.292 49.167,3.994 49.167,3.687 49.043,3.667 47.178,3.667 45.243,3.667 45.188,3.657 45.137,3.292 L 45.083,2.917 37.227,2.873 29.37,2.83 29.265,3.248 M 41.679,12.333 L 46.0,12.333 46.0,12.75 C 46.0,13.157 46.028,13.167 47.25,13.167 48.365,13.167 48.5,13.201 48.5,13.482 48.5,13.886 48.813,14.0 49.919,14.0 50.716,14.0 50.816,14.039 50.863,14.375 50.907,14.684 51.037,14.759 51.602,14.8 52.142,14.84 52.327,14.937 52.474,15.258 52.626,15.593 52.78,15.667 53.33,15.667 53.889,15.667 54.0,15.722 54.0,16.0 54.0,16.244 54.111,16.333 54.417,16.333 54.75,16.333 54.833,16.417 54.833,16.75 54.833,17.083 54.917,17.167 55.25,17.167 55.554,17.167 55.667,17.256 55.667,17.497 55.667,17.71 55.814,17.864 56.083,17.932 56.344,17.997 56.5,18.154 56.5,18.351 56.5,18.552 56.617,18.667 56.822,18.667 57.029,18.667 57.163,18.801 57.197,19.042 57.231,19.283 57.384,19.436 57.625,19.47 57.896,19.508 58.0,19.635 58.0,19.928 58.0,20.249 58.087,20.333 58.417,20.333 58.75,20.333 58.833,20.417 58.833,20.75 58.833,21.083 58.917,21.167 59.25,21.167 59.634,21.167 59.667,21.227 59.667,21.932 59.667,22.558 59.728,22.714 60.0,22.785 60.233,22.846 60.333,23.012 60.333,23.339 60.333,24.023 60.495,24.333 60.851,24.333 61.131,24.333 61.167,24.466 61.167,25.497 61.167,26.594 61.19,26.666 61.577,26.763 61.972,26.862 61.99,26.927 62.036,28.392 62.081,29.829 62.105,29.92 62.458,29.97 L 62.833,30.023 62.833,36.766 62.833,43.508 62.417,43.667 C 62.001,43.825 62.0,43.829 62.0,46.068 62.0,48.122 61.973,48.319 61.685,48.411 61.264,48.545 61.172,48.965 61.169,50.772 61.167,52.111 61.13,52.304 60.859,52.375 60.507,52.467 60.338,53.215 60.335,54.689 60.334,55.487 60.283,55.641 60.0,55.715 59.697,55.794 59.667,55.942 59.667,57.318 59.667,58.823 59.664,58.833 59.25,58.833 58.835,58.833 58.833,58.839 58.833,60.417 58.833,61.994 58.832,62.0 58.417,62.0 58.012,62.0 58.0,62.034 58.0,63.155 58.0,64.226 57.973,64.314 57.625,64.363 57.284,64.412 57.245,64.519 57.201,65.542 57.174,66.16 57.085,66.667 57.004,66.667 56.586,66.667 56.333,67.236 56.333,68.179 56.333,69.056 56.296,69.167 56.0,69.167 55.698,69.167 55.667,69.278 55.667,70.333 55.667,71.467 55.655,71.5 55.25,71.5 54.843,71.5 54.833,71.528 54.833,72.75 54.833,73.972 54.824,74.0 54.417,74.0 54.037,74.0 54.0,74.064 54.0,74.71 54.0,75.287 53.93,75.452 53.625,75.585 53.298,75.729 53.244,75.893 53.201,76.864 53.157,77.869 53.116,77.984 52.784,78.031 52.483,78.074 52.408,78.208 52.366,78.775 52.328,79.294 52.235,79.487 51.991,79.551 51.708,79.625 51.667,79.786 51.667,80.818 51.667,81.968 51.655,82.0 51.25,82.0 50.868,82.0 50.833,82.062 50.833,82.738 50.833,83.377 50.783,83.484 50.458,83.53 50.138,83.576 50.076,83.699 50.033,84.375 49.992,85.014 49.923,85.167 49.675,85.167 49.281,85.167 49.167,85.485 49.167,86.585 49.167,87.383 49.127,87.482 48.792,87.53 48.472,87.576 48.409,87.699 48.366,88.375 48.324,89.031 48.259,89.167 47.991,89.167 47.718,89.167 47.667,89.285 47.667,89.905 47.667,90.544 47.616,90.651 47.292,90.697 46.973,90.742 46.909,90.866 46.866,91.531 46.824,92.19 46.759,92.321 46.45,92.365 46.14,92.409 46.075,92.539 46.033,93.208 45.992,93.847 45.923,94.0 45.675,94.0 45.326,94.0 45.167,94.315 45.167,95.002 45.167,95.32 45.063,95.51 44.854,95.577 44.545,95.675 44.339,96.38 44.335,97.356 44.334,97.653 44.226,97.822 44.0,97.882 43.778,97.94 43.667,98.109 43.667,98.389 43.667,98.699 43.567,98.824 43.292,98.863 42.98,98.908 42.908,99.036 42.865,99.625 42.825,100.182 42.749,100.333 42.508,100.333 42.147,100.333 42.0,100.65 42.0,101.43 42.0,101.878 41.933,102.0 41.684,102.0 41.325,102.0 41.167,102.31 41.167,103.014 41.167,103.381 41.089,103.5 40.849,103.5 40.594,103.5 40.509,103.665 40.417,104.333 40.325,105.002 40.239,105.167 39.984,105.167 39.72,105.167 39.667,105.29 39.667,105.905 39.667,106.544 39.616,106.651 39.292,106.697 38.972,106.742 38.909,106.866 38.866,107.542 38.82,108.256 38.775,108.333 38.408,108.333 38.037,108.333 38.0,108.4 38.0,109.064 38.0,109.857 37.695,110.055 36.75,109.874 36.381,109.804 36.333,109.711 36.333,109.064 36.333,108.444 36.283,108.333 36.0,108.333 35.739,108.333 35.667,108.222 35.667,107.822 35.667,107.196 35.401,106.667 35.087,106.667 34.93,106.667 34.836,106.432 34.801,105.958 34.759,105.375 34.685,105.241 34.384,105.198 34.075,105.154 34.01,105.023 33.967,104.365 33.925,103.706 33.859,103.575 33.551,103.531 33.251,103.489 33.176,103.354 33.134,102.781 33.092,102.203 33.019,102.074 32.708,102.03 32.385,101.984 32.333,101.877 32.333,101.25 32.333,100.677 32.265,100.501 32.011,100.42 31.833,100.364 31.664,100.152 31.636,99.95 31.603,99.72 31.447,99.564 31.217,99.531 30.908,99.487 30.843,99.357 30.8,98.698 30.758,98.033 30.694,97.909 30.375,97.863 30.039,97.816 30.0,97.716 30.0,96.917 30.0,96.063 29.73,95.5 29.321,95.5 29.236,95.5 29.167,95.162 29.167,94.75 29.167,94.061 29.133,94.0 28.75,94.0 28.361,94.0 28.333,93.944 28.333,93.167 28.333,92.444 28.289,92.333 28.0,92.333 27.732,92.333 27.667,92.222 27.667,91.764 27.667,90.978 27.52,90.667 27.149,90.667 26.886,90.667 26.833,90.541 26.833,89.917 26.833,89.228 26.799,89.167 26.417,89.167 26.028,89.167 26.0,89.111 26.0,88.333 26.0,87.556 25.972,87.5 25.583,87.5 25.179,87.5 25.167,87.467 25.167,86.333 25.167,85.2 25.155,85.167 24.75,85.167 24.361,85.167 24.333,85.111 24.333,84.333 24.333,83.611 24.289,83.5 24.0,83.5 23.716,83.5 23.667,83.389 23.667,82.75 23.667,82.065 23.631,82.0 23.257,82.0 22.865,82.0 22.846,81.95 22.799,80.792 22.754,79.683 22.719,79.579 22.375,79.53 22.051,79.484 22.0,79.377 22.0,78.738 22.0,78.065 21.964,78.0 21.591,78.0 21.198,78.0 21.179,77.95 21.132,76.792 21.087,75.683 21.052,75.579 20.708,75.53 20.363,75.481 20.333,75.39 20.333,74.389 20.333,73.452 20.289,73.29 20.008,73.217 19.755,73.151 19.672,72.961 19.633,72.358 19.591,71.705 19.526,71.575 19.216,71.531 18.884,71.484 18.843,71.369 18.799,70.364 18.755,69.353 18.715,69.245 18.375,69.197 18.028,69.147 18.0,69.059 18.0,68.006 18.0,66.933 17.977,66.864 17.583,66.765 17.189,66.666 17.167,66.599 17.167,65.497 17.167,64.367 17.155,64.333 16.75,64.333 16.345,64.333 16.333,64.3 16.333,63.167 16.333,62.111 16.302,62.0 16.0,62.0 15.698,62.0 15.666,61.888 15.664,60.792 15.662,59.266 15.547,58.833 15.147,58.833 14.873,58.833 14.833,58.7 14.833,57.771 14.833,56.246 14.69,55.667 14.313,55.667 14.029,55.667 14.0,55.52 14.0,54.087 14.0,52.545 13.99,52.504 13.589,52.403 13.186,52.302 13.176,52.261 13.13,50.442 13.086,48.696 13.061,48.573 12.708,48.419 12.346,48.26 12.333,48.179 12.333,45.972 12.333,43.836 12.312,43.682 12.0,43.583 11.476,43.417 11.476,30.667 12.0,30.667 12.314,30.667 12.333,30.556 12.333,28.762 12.333,26.913 12.344,26.855 12.708,26.803 13.052,26.754 13.087,26.65 13.132,25.542 13.179,24.383 13.198,24.333 13.591,24.333 13.964,24.333 14.0,24.268 14.0,23.595 14.0,22.956 14.051,22.849 14.375,22.803 14.694,22.758 14.758,22.634 14.8,21.969 14.843,21.31 14.908,21.179 15.217,21.135 15.449,21.102 15.603,20.946 15.637,20.708 15.671,20.467 15.805,20.333 16.012,20.333 16.244,20.333 16.333,20.217 16.333,19.917 16.333,19.583 16.417,19.5 16.75,19.5 17.083,19.5 17.167,19.417 17.167,19.083 17.167,18.776 17.255,18.667 17.504,18.667 17.711,18.667 17.903,18.505 18.0,18.25 18.087,18.021 18.264,17.833 18.393,17.833 18.522,17.833 18.667,17.683 18.715,17.5 18.767,17.302 18.942,17.167 19.148,17.167 19.378,17.167 19.529,17.027 19.598,16.75 19.664,16.489 19.821,16.333 20.018,16.333 20.219,16.333 20.333,16.216 20.333,16.009 20.333,15.741 20.469,15.676 21.125,15.634 21.794,15.591 21.925,15.527 21.969,15.217 22.011,14.917 22.146,14.842 22.719,14.801 23.251,14.762 23.455,14.662 23.578,14.382 23.715,14.07 23.893,14.007 24.745,13.965 25.603,13.924 25.774,13.862 25.915,13.542 26.062,13.206 26.197,13.167 27.206,13.167 28.297,13.167 28.333,13.153 28.333,12.75 L 28.333,12.333 32.672,12.333 C 36.649,12.333 37.02,12.309 37.125,12.042 37.235,11.764 37.243,11.764 37.299,12.042 37.353,12.31 37.697,12.333 41.679,12.333 M 32.5,24.75 C 32.363,25.11 32.239,25.167 31.587,25.167 30.899,25.167 30.833,25.202 30.833,25.574 30.833,25.942 30.756,25.987 30.042,26.033 29.366,26.076 29.242,26.138 29.197,26.458 29.162,26.706 29.029,26.833 28.806,26.833 28.614,26.833 28.433,26.971 28.386,27.151 28.34,27.326 28.159,27.507 27.985,27.552 27.8,27.601 27.667,27.781 27.667,27.984 27.667,28.245 27.562,28.333 27.25,28.333 26.917,28.333 26.833,28.417 26.833,28.75 26.833,29.083 26.75,29.167 26.417,29.167 26.087,29.167 26.0,29.251 26.0,29.572 26.0,29.865 25.896,29.992 25.625,30.03 25.317,30.074 25.241,30.204 25.201,30.756 25.163,31.261 25.06,31.468 24.784,31.589 24.503,31.712 24.405,31.916 24.365,32.458 24.324,33.031 24.252,33.167 23.99,33.167 23.714,33.167 23.667,33.286 23.667,33.988 23.667,34.714 23.623,34.816 23.292,34.863 L 22.917,34.917 22.917,40.0 22.917,45.083 23.292,45.137 C 23.617,45.183 23.667,45.289 23.667,45.944 23.667,46.544 23.731,46.715 23.983,46.781 24.21,46.84 24.331,47.073 24.41,47.598 24.497,48.177 24.589,48.333 24.844,48.333 25.077,48.333 25.167,48.449 25.167,48.75 25.167,49.083 25.25,49.167 25.583,49.167 25.917,49.167 26.0,49.25 26.0,49.583 26.0,49.917 26.083,50.0 26.417,50.0 26.722,50.0 26.833,50.089 26.833,50.333 26.833,50.578 26.944,50.667 27.25,50.667 27.583,50.667 27.667,50.75 27.667,51.083 27.667,51.388 27.756,51.5 27.997,51.5 28.21,51.5 28.364,51.648 28.432,51.917 28.523,52.282 28.626,52.333 29.268,52.333 29.938,52.333 30.0,52.369 30.0,52.75 30.0,53.139 30.056,53.167 30.833,53.167 31.611,53.167 31.667,53.194 31.667,53.583 31.667,53.964 31.729,54.0 32.397,54.0 32.988,54.0 33.145,54.064 33.215,54.333 33.3,54.657 33.442,54.667 38.39,54.667 43.331,54.667 43.481,54.657 43.583,54.333 43.668,54.066 43.836,54.0 44.428,54.0 45.1,54.0 45.167,53.963 45.167,53.592 45.167,53.225 45.244,53.18 45.958,53.134 46.627,53.091 46.758,53.027 46.802,52.719 46.834,52.491 46.991,52.334 47.219,52.302 47.449,52.269 47.603,52.112 47.637,51.875 47.671,51.634 47.805,51.5 48.012,51.5 48.244,51.5 48.333,51.384 48.333,51.083 48.333,50.75 48.417,50.667 48.75,50.667 49.051,50.667 49.167,50.577 49.167,50.345 49.167,50.138 49.301,50.004 49.542,49.97 49.779,49.936 49.936,49.783 49.969,49.552 50.001,49.325 50.158,49.168 50.385,49.135 50.693,49.091 50.758,48.96 50.801,48.292 50.847,47.577 50.891,47.5 51.259,47.5 51.631,47.5 51.667,47.434 51.667,46.75 51.667,46.111 51.716,46.0 52.0,46.0 52.288,46.0 52.333,45.889 52.333,45.178 52.333,44.453 52.377,44.35 52.708,44.303 L 53.083,44.25 53.128,39.542 53.172,34.833 52.753,34.833 C 52.345,34.833 52.333,34.801 52.333,33.678 52.333,32.681 52.289,32.508 52.011,32.42 51.833,32.364 51.664,32.152 51.636,31.95 51.603,31.72 51.447,31.564 51.217,31.531 50.917,31.489 50.842,31.354 50.801,30.781 50.759,30.203 50.686,30.074 50.375,30.03 50.104,29.992 50.0,29.865 50.0,29.572 50.0,29.251 49.913,29.167 49.583,29.167 49.25,29.167 49.167,29.083 49.167,28.75 49.167,28.417 49.083,28.333 48.75,28.333 48.438,28.333 48.333,28.245 48.333,27.984 48.333,27.781 48.2,27.601 48.015,27.552 47.841,27.507 47.66,27.326 47.614,27.151 47.548,26.897 47.379,26.833 46.766,26.833 46.06,26.833 46.0,26.801 46.0,26.417 46.0,26.087 45.916,26.0 45.595,26.0 45.302,26.0 45.175,25.896 45.137,25.625 45.088,25.284 44.981,25.245 43.958,25.201 42.993,25.158 42.833,25.108 42.833,24.844 42.833,24.357 42.582,24.333 37.482,24.333 L 32.658,24.333 32.5,24.75 M 38.863,33.542 C 38.912,33.882 39.02,33.921 40.031,33.966 41.035,34.01 41.151,34.051 41.198,34.382 41.231,34.616 41.387,34.769 41.625,34.803 41.866,34.837 42.0,34.971 42.0,35.178 42.0,35.41 42.116,35.5 42.417,35.5 42.75,35.5 42.833,35.583 42.833,35.917 42.833,36.25 42.917,36.333 43.25,36.333 43.639,36.333 43.667,36.389 43.667,37.167 43.667,37.889 43.711,38.0 44.0,38.0 44.31,38.0 44.333,38.111 44.333,39.583 44.333,41.056 44.31,41.167 44.0,41.167 43.711,41.167 43.667,41.278 43.667,42.0 43.667,42.778 43.639,42.833 43.25,42.833 42.949,42.833 42.833,42.923 42.833,43.155 42.833,43.362 42.699,43.496 42.458,43.53 42.221,43.564 42.064,43.717 42.031,43.948 41.999,44.175 41.842,44.332 41.615,44.365 41.384,44.398 41.23,44.554 41.197,44.792 41.147,45.139 41.059,45.167 39.988,45.167 38.867,45.167 38.833,45.179 38.833,45.583 38.833,45.972 38.778,46.0 38.0,46.0 37.222,46.0 37.167,45.972 37.167,45.583 37.167,45.179 37.133,45.167 36.0,45.167 34.867,45.167 34.833,45.155 34.833,44.75 34.833,44.42 34.749,44.333 34.428,44.333 34.135,44.333 34.008,44.23 33.97,43.958 33.936,43.717 33.783,43.564 33.542,43.53 33.301,43.496 33.167,43.362 33.167,43.155 33.167,42.923 33.051,42.833 32.75,42.833 32.361,42.833 32.333,42.778 32.333,42.0 32.333,41.278 32.289,41.167 32.0,41.167 31.685,41.167 31.667,41.056 31.667,39.167 31.667,37.278 31.685,37.167 32.0,37.167 32.289,37.167 32.333,37.056 32.333,36.333 32.333,35.556 32.361,35.5 32.75,35.5 33.047,35.5 33.167,35.41 33.167,35.186 33.167,34.941 33.332,34.846 33.908,34.76 34.437,34.681 34.679,34.556 34.753,34.324 34.834,34.067 35.009,34.0 35.595,34.0 36.271,34.0 36.333,33.965 36.333,33.583 36.333,32.966 38.776,32.925 38.863,33.542" />
</g>
</svg>