<?xml version="1.0" encoding="utf-8"?>
<!-- Created by sK1 2.0rc4 (https://sk1project.net/) -->
<svg xmlns="http://www.w3.org/2000/svg" height="282.33px" width="249.32px" version="1.1" xmlns:xlink="http://www.w3.org/1999/xlink" id="d4fdc6c2-999f-11eb-8f0e-3497f655573b">
<defs id="defs1">
	<radialGradient spreadMethod="pad" gradientUnits="userSpaceOnUse" cy="781.63" cx="-393.21" gradientTransform="matrix(1.009262210984, 1.9364954091520001, -1.8573811328320002, 0.9679978700192001, 1907.0471099055997, 47.7400314928)" r="38.523" id="grad1">
		<stop style="stop-color:#eeeeee;stop-opacity:1.0;" offset="0.0" />
		<stop style="stop-color:#980101;stop-opacity:1.0;" offset="0.41147" />
		<stop style="stop-color:#000000;stop-opacity:1.0;" offset="1.0" />
	</radialGradient>
</defs>
<g>
	<g>
		<path style="fill:#000000;" d="M 60.9597,39.0064 L 11.6961,270.1667 79.9073,46.5854 60.9597,39.0064 Z" />
		<path style="fill:url(#grad1);" d="M 122.1997,58.7621 C 122.1997,88.2868 98.2562,112.2303 68.7315,112.2303 39.2068,112.2303 15.2633,88.2868 15.2633,58.7621 15.2633,29.2374 39.2068,5.2939 68.7315,5.2939 98.2562,5.2939 122.1997,29.2374 122.1997,58.7621 Z" />
	</g>
	<path style="fill-opacity:0.0;fill:#000000;" d="M 451.4788,134.2979 L 290.5072,307.3601 463.8459,150.5309 451.4788,134.2979 Z" />
	<path style="fill-opacity:0.0;fill:#000000;" d="M 469.8012,100.5663 C 454.6406,125.9014 421.7999,134.1526 396.4648,118.9919 371.1296,103.8313 362.8784,70.9906 378.0391,45.6555 393.1997,20.3204 426.0404,12.0692 451.3755,27.2298 476.7107,42.3904 484.9619,75.2311 469.8012,100.5663 Z" />
	<path style="fill-opacity:0.48077;fill:#000000;" d="M 129.7065,144.7099 L 16.3284,266.6038 139.313,155.3328 C 141.491,157.1697 143.8454,158.8554 146.3693,160.3658 171.7044,175.5264 204.5451,167.2752 219.7057,141.9401 234.8664,116.605 226.6152,83.7642 201.2801,68.6036 175.9449,53.443 143.1042,61.6942 127.9436,87.0293 116.8773,105.5223 118.285,128.0144 129.7057,144.7104 L 129.7065,144.7099 Z M 139.313,155.3328 L 189.6672,109.7746 177.3,93.5416 129.7065,144.7099 C 132.3724,148.609 135.5851,152.1915 139.3124,155.3333 L 139.313,155.3328 Z" />
</g>
</svg>