<?xml version="1.0" encoding="utf-8"?>
<!-- Created by sK1 2.0rc4 (https://sk1project.net/) -->
<svg xmlns="http://www.w3.org/2000/svg" height="272.340425532px" width="400.0px" version="1.1" xmlns:xlink="http://www.w3.org/1999/xlink" id="29084062-9e1e-11eb-93f3-3497f655573b">

<g>
	<path style="fill-rule:evenodd;fill:#dfe0dc;" d="M 123.297,96.2 C 123.147,96.343 122.626,96.815 122.139,97.249 121.652,97.683 121.253,98.235 121.253,98.474 121.253,98.714 121.131,98.91 120.981,98.91 120.831,98.91 120.708,99.128 120.708,99.395 120.708,99.662 120.463,100.056 120.163,100.272 119.864,100.489 119.619,100.825 119.619,101.02 119.619,101.4 116.779,104.36 116.415,104.36 116.295,104.36 116.02,104.605 115.804,104.905 115.588,105.204 115.249,105.45 115.05,105.45 114.553,105.45 113.351,106.693 113.351,107.208 113.351,107.44 113.232,107.629 113.085,107.629 112.938,107.629 112.144,108.304 111.32,109.128 110.495,109.952 109.635,110.627 109.406,110.627 109.178,110.627 108.992,110.749 108.992,110.899 108.992,111.049 108.747,111.172 108.447,111.172 108.147,111.172 107.902,111.294 107.902,111.444 107.902,111.594 107.657,111.717 107.357,111.717 107.057,111.717 106.812,111.839 106.812,111.989 106.812,112.139 106.575,112.262 106.285,112.262 105.996,112.262 105.681,112.507 105.586,112.807 105.491,113.106 105.299,113.351 105.159,113.351 105.019,113.351 104.905,113.57 104.905,113.836 104.905,114.103 104.659,114.498 104.36,114.714 103.798,115.119 103.584,116.621 104.087,116.621 104.25,116.621 104.36,117.666 104.36,119.21 104.36,120.754 104.47,121.798 104.632,121.798 104.782,121.798 104.905,122.233 104.905,122.764 104.905,123.294 105.042,123.893 105.211,124.095 106.436,125.56 107.09,126.158 107.466,126.158 107.706,126.158 107.902,126.281 107.902,126.431 107.902,126.58 108.12,126.703 108.387,126.703 108.653,126.703 109.048,126.948 109.264,127.248 109.48,127.548 109.817,127.793 110.012,127.793 110.207,127.793 111.04,128.467 111.865,129.292 112.689,130.116 113.483,130.79 113.63,130.79 113.777,130.79 113.896,130.978 113.896,131.208 113.896,131.741 115.657,133.515 116.185,133.515 116.405,133.515 116.662,133.76 116.757,134.06 116.853,134.36 117.109,134.605 117.327,134.605 117.818,134.605 120.708,137.459 120.708,137.945 120.708,138.14 120.954,138.476 121.253,138.692 121.553,138.908 121.798,139.251 121.798,139.455 121.798,139.658 122.285,140.275 122.88,140.825 124.511,142.335 124.742,142.507 125.133,142.507 125.331,142.507 125.67,142.752 125.886,143.052 126.102,143.351 126.469,143.597 126.703,143.597 126.937,143.597 127.308,143.86 127.528,144.182 127.749,144.504 128.45,145.298 129.087,145.946 129.724,146.594 130.245,147.285 130.245,147.48 130.245,147.676 130.49,148.013 130.79,148.229 131.09,148.445 131.335,148.787 131.335,148.99 131.335,149.464 132.007,150.136 132.482,150.136 132.684,150.136 133.026,150.381 133.243,150.681 133.459,150.981 133.796,151.226 133.992,151.226 134.667,151.226 139.782,156.282 139.782,156.949 139.782,157.342 141.035,158.583 141.431,158.583 141.603,158.583 142.087,158.951 142.507,159.401 142.927,159.85 143.407,160.218 143.574,160.218 143.875,160.218 148.501,164.703 148.501,164.995 148.501,165.079 148.808,165.454 149.183,165.829 149.557,166.203 149.864,166.627 149.864,166.77 149.864,166.913 150.049,167.03 150.275,167.03 150.5,167.03 152.704,169.022 155.171,171.458 160.058,176.282 160.938,177.112 161.167,177.112 161.251,177.112 163.521,179.319 166.213,182.016 168.904,184.714 171.247,186.921 171.419,186.921 171.592,186.921 172.38,187.595 173.172,188.42 173.964,189.244 174.751,189.918 174.921,189.918 175.314,189.918 176.567,191.161 176.567,191.551 176.567,191.714 177.67,192.941 179.019,194.278 180.368,195.615 181.471,196.849 181.471,197.019 181.471,197.387 183.048,198.91 183.429,198.91 183.575,198.91 184.165,199.401 184.741,200.0 185.317,200.599 185.955,201.09 186.158,201.09 186.362,201.09 186.705,201.335 186.921,201.635 187.137,201.935 187.532,202.18 187.799,202.18 188.065,202.18 188.283,202.302 188.283,202.452 188.283,202.602 188.651,202.725 189.101,202.725 189.55,202.725 189.918,202.847 189.918,202.997 189.918,203.147 190.276,203.27 190.713,203.27 191.15,203.27 191.579,203.423 191.667,203.61 191.794,203.883 191.857,203.883 191.985,203.61 192.072,203.423 192.501,203.27 192.938,203.27 193.375,203.27 193.733,203.147 193.733,202.997 193.733,202.847 194.04,202.725 194.414,202.725 194.789,202.725 195.095,202.602 195.095,202.452 195.095,202.302 195.314,202.18 195.58,202.18 195.847,202.18 196.242,201.935 196.458,201.635 196.674,201.335 197.017,201.09 197.22,201.09 197.424,201.09 198.062,200.599 198.638,200.0 199.214,199.401 199.865,198.91 200.086,198.91 200.566,198.91 202.18,197.457 202.18,197.025 202.18,196.433 211.588,186.926 212.196,186.903 212.457,186.893 213.59,185.911 214.714,184.721 219.199,179.971 222.066,177.112 222.344,177.112 222.785,177.112 224.633,175.342 230.238,169.55 231.579,168.164 232.808,167.03 232.969,167.03 233.264,167.03 235.15,165.267 235.15,164.991 235.15,164.909 236.069,163.922 237.193,162.798 238.317,161.674 239.237,160.634 239.237,160.486 239.237,160.339 239.433,160.218 239.673,160.218 239.912,160.218 240.452,159.85 240.872,159.401 241.292,158.951 241.776,158.583 241.947,158.583 242.345,158.583 243.597,157.341 243.597,156.947 243.597,156.689 245.314,154.945 248.426,152.045 248.908,151.594 249.402,151.226 249.523,151.226 249.644,151.226 249.92,150.981 250.136,150.681 250.352,150.381 250.695,150.136 250.897,150.136 251.349,150.136 252.044,149.472 252.044,149.039 252.044,148.863 252.411,148.376 252.861,147.956 253.311,147.536 253.678,147.055 253.678,146.887 253.678,146.461 256.586,143.597 257.018,143.597 257.213,143.597 257.55,143.351 257.766,143.052 257.982,142.752 258.32,142.507 258.519,142.507 259.235,142.507 261.58,140.161 261.58,139.445 261.58,139.247 261.826,138.908 262.125,138.692 262.425,138.476 262.67,138.14 262.67,137.945 262.67,137.483 265.549,134.605 266.01,134.605 266.205,134.605 266.541,134.36 266.757,134.06 266.974,133.76 267.311,133.515 267.508,133.515 268.005,133.515 269.755,131.718 269.755,131.208 269.755,130.978 269.873,130.79 270.018,130.79 270.361,130.79 272.207,128.944 272.207,128.601 272.207,128.456 272.425,128.338 272.692,128.338 272.959,128.338 273.353,128.093 273.569,127.793 273.786,127.493 274.153,127.248 274.387,127.248 274.62,127.248 274.988,127.003 275.204,126.703 275.42,126.403 275.881,126.158 276.227,126.158 277.088,126.158 278.747,124.459 278.747,123.579 278.747,123.199 278.869,122.888 279.019,122.888 279.185,122.888 279.292,121.662 279.292,119.755 279.292,117.847 279.398,116.621 279.564,116.621 280.068,116.621 279.853,115.119 279.292,114.714 278.992,114.498 278.747,114.159 278.747,113.96 278.747,113.463 277.503,112.262 276.988,112.262 276.756,112.262 276.567,112.139 276.567,111.989 276.567,111.839 276.322,111.717 276.022,111.717 275.722,111.717 275.477,111.594 275.477,111.444 275.477,111.294 275.232,111.172 274.932,111.172 274.632,111.172 274.387,111.049 274.387,110.899 274.387,110.749 274.172,110.623 273.91,110.619 273.648,110.614 273.127,110.239 272.752,109.784 271.594,108.379 270.831,107.629 270.56,107.629 270.417,107.629 270.3,107.44 270.3,107.208 270.3,106.693 269.098,105.45 268.601,105.45 268.403,105.45 268.063,105.204 267.847,104.905 267.631,104.605 267.296,104.36 267.101,104.36 266.605,104.36 263.215,100.917 263.215,100.414 263.215,100.186 263.093,100.0 262.943,100.0 262.793,100.0 262.67,99.755 262.67,99.455 262.67,99.155 262.548,98.91 262.398,98.91 262.248,98.91 262.125,98.725 262.125,98.499 262.125,98.273 261.775,97.721 261.347,97.273 L 260.568,96.458 255.499,96.458 C 251.277,96.458 250.372,96.528 250.079,96.876 249.886,97.106 249.574,97.465 249.387,97.674 249.2,97.883 249.046,98.246 249.046,98.482 249.046,98.717 248.924,98.91 248.774,98.91 248.624,98.91 248.501,99.128 248.501,99.395 248.501,99.662 248.256,100.056 247.956,100.272 247.657,100.489 247.411,100.826 247.411,101.023 247.411,101.488 245.629,103.27 245.165,103.27 244.968,103.27 244.63,103.515 244.414,103.815 244.198,104.114 243.83,104.36 243.597,104.36 243.363,104.36 242.995,104.605 242.779,104.905 242.563,105.204 242.224,105.45 242.026,105.45 241.528,105.45 240.327,106.693 240.327,107.208 240.327,107.44 240.204,107.629 240.054,107.629 239.905,107.629 239.782,107.757 239.782,107.913 239.782,108.227 239.569,108.503 238.1,110.09 237.55,110.685 236.906,111.172 236.67,111.172 236.433,111.172 236.24,111.294 236.24,111.444 236.24,111.594 235.995,111.717 235.695,111.717 235.395,111.717 235.15,111.839 235.15,111.989 235.15,112.139 234.963,112.262 234.735,112.262 234.196,112.262 231.335,115.122 231.335,115.662 231.335,115.89 231.213,116.076 231.063,116.076 230.913,116.076 230.79,116.27 230.79,116.506 230.79,117.016 228.116,119.619 227.592,119.619 227.469,119.619 227.192,119.864 226.975,120.163 226.759,120.463 226.424,120.708 226.229,120.708 225.811,120.708 222.343,124.113 222.343,124.523 222.343,124.968 218.858,128.338 218.397,128.338 218.17,128.338 217.984,128.46 217.984,128.61 217.984,128.76 217.738,128.883 217.439,128.883 217.139,128.883 216.894,128.987 216.894,129.114 216.894,129.577 215.921,130.435 215.191,130.616 214.727,130.73 214.441,130.983 214.441,131.28 214.441,131.544 214.196,131.937 213.896,132.153 213.597,132.369 213.351,132.736 213.351,132.97 213.351,133.204 213.106,133.571 212.807,133.787 212.507,134.003 212.262,134.346 212.262,134.548 212.262,135.023 211.589,135.695 211.115,135.695 210.913,135.695 210.57,135.94 210.354,136.24 210.138,136.54 209.77,136.785 209.537,136.785 209.303,136.785 208.935,137.03 208.719,137.33 208.503,137.629 208.164,137.875 207.966,137.875 207.527,137.875 206.267,139.093 206.267,139.517 206.267,139.684 206.083,140.005 205.858,140.23 205.634,140.454 205.45,140.867 205.45,141.146 205.45,141.424 205.204,141.73 204.905,141.826 204.605,141.921 204.36,142.178 204.36,142.398 204.36,142.894 202.6,144.687 202.113,144.687 201.916,144.687 201.578,144.932 201.362,145.232 201.146,145.531 200.751,145.777 200.485,145.777 200.218,145.777 200.0,145.899 200.0,146.049 200.0,146.199 199.755,146.322 199.455,146.322 199.155,146.322 198.91,146.444 198.91,146.594 198.91,146.744 198.72,146.866 198.488,146.866 198.079,146.866 194.824,150.011 194.013,151.189 193.793,151.509 193.44,151.771 193.228,151.771 193.016,151.771 192.614,152.035 192.334,152.358 L 191.826,152.944 191.317,152.358 C 191.037,152.035 190.664,151.771 190.489,151.771 190.313,151.771 189.076,150.668 187.738,149.319 186.401,147.97 185.118,146.866 184.888,146.866 184.657,146.866 184.469,146.744 184.469,146.594 184.469,146.444 184.223,146.322 183.924,146.322 183.624,146.322 183.379,146.199 183.379,146.049 183.379,145.899 183.222,145.777 183.03,145.777 182.838,145.777 182.505,145.531 182.289,145.232 182.073,144.932 181.735,144.687 181.538,144.687 181.051,144.687 179.292,142.894 179.292,142.398 179.292,142.178 179.046,141.921 178.747,141.826 178.447,141.73 178.202,141.443 178.202,141.186 178.202,140.93 177.956,140.543 177.657,140.327 177.357,140.111 177.112,139.772 177.112,139.573 177.112,139.105 175.881,137.875 175.413,137.875 175.215,137.875 174.875,137.629 174.659,137.33 174.443,137.03 174.076,136.785 173.842,136.785 173.608,136.785 173.241,136.54 173.025,136.24 172.808,135.94 172.527,135.695 172.4,135.695 172.039,135.695 171.39,134.957 171.39,134.548 171.39,134.346 171.144,134.003 170.845,133.787 170.545,133.571 170.3,133.204 170.3,132.97 170.3,132.736 170.054,132.369 169.755,132.153 169.455,131.937 169.21,131.55 169.21,131.293 169.21,131.037 168.965,130.749 168.665,130.654 168.365,130.559 168.12,130.367 168.12,130.227 168.12,130.087 167.902,129.973 167.635,129.973 167.368,129.973 166.974,129.728 166.757,129.428 166.541,129.128 166.147,128.883 165.88,128.883 165.613,128.883 165.395,128.76 165.395,128.61 165.395,128.46 165.209,128.338 164.981,128.338 164.45,128.338 161.035,124.934 161.035,124.404 161.035,124.184 160.729,123.696 160.354,123.322 159.98,122.947 159.673,122.451 159.673,122.219 159.673,121.988 159.455,121.798 159.188,121.798 158.922,121.798 158.527,121.553 158.311,121.253 158.095,120.954 157.727,120.708 157.493,120.708 157.26,120.708 156.892,120.463 156.676,120.163 156.46,119.864 156.121,119.619 155.923,119.619 155.532,119.619 155.301,119.447 153.67,117.937 153.075,117.387 152.589,116.743 152.589,116.506 152.589,116.27 152.466,116.076 152.316,116.076 152.166,116.076 152.044,115.889 152.044,115.66 152.044,115.432 151.492,114.693 150.817,114.018 150.143,113.344 149.591,112.673 149.591,112.527 149.591,112.381 149.346,112.262 149.046,112.262 148.747,112.262 148.501,112.139 148.501,111.989 148.501,111.839 148.256,111.717 147.956,111.717 147.657,111.717 147.411,111.594 147.411,111.444 147.411,111.294 147.225,111.172 146.997,111.172 146.537,111.172 143.597,108.349 143.597,107.908 143.597,107.755 143.474,107.629 143.324,107.629 143.174,107.629 143.052,107.44 143.052,107.208 143.052,106.693 141.851,105.45 141.353,105.45 141.155,105.45 140.815,105.204 140.599,104.905 140.383,104.605 139.997,104.36 139.74,104.36 139.484,104.36 139.196,104.114 139.101,103.815 139.006,103.515 138.747,103.27 138.525,103.27 138.05,103.27 136.785,102.07 136.785,101.62 136.785,101.449 136.417,100.965 135.967,100.545 135.518,100.125 135.15,99.585 135.15,99.346 135.15,99.106 135.027,98.91 134.877,98.91 134.728,98.91 134.605,98.714 134.605,98.474 134.605,98.098 134.007,97.444 132.542,96.219 132.087,95.838 123.694,95.821 123.297,96.2" />
	<path style="fill-rule:evenodd;fill:#335099;" d="M 0.0,136.24 L 0.0,272.48 200.0,272.48 400.0,272.48 400.0,136.24 400.0,0.0 200.0,0.0 0.0,0.0 0.0,136.24 M 132.542,96.219 C 134.007,97.444 134.605,98.098 134.605,98.474 134.605,98.714 134.728,98.91 134.877,98.91 135.027,98.91 135.15,99.106 135.15,99.346 135.15,99.585 135.518,100.125 135.967,100.545 136.417,100.965 136.785,101.449 136.785,101.62 136.785,102.07 138.05,103.27 138.525,103.27 138.747,103.27 139.006,103.515 139.101,103.815 139.196,104.114 139.484,104.36 139.74,104.36 139.997,104.36 140.383,104.605 140.599,104.905 140.815,105.204 141.155,105.45 141.353,105.45 141.851,105.45 143.052,106.693 143.052,107.208 143.052,107.44 143.174,107.629 143.324,107.629 143.474,107.629 143.597,107.755 143.597,107.908 143.597,108.349 146.537,111.172 146.997,111.172 147.225,111.172 147.411,111.294 147.411,111.444 147.411,111.594 147.657,111.717 147.956,111.717 148.256,111.717 148.501,111.839 148.501,111.989 148.501,112.139 148.747,112.262 149.046,112.262 149.346,112.262 149.591,112.381 149.591,112.527 149.591,112.673 150.143,113.344 150.817,114.018 151.492,114.693 152.044,115.432 152.044,115.66 152.044,115.889 152.166,116.076 152.316,116.076 152.466,116.076 152.589,116.27 152.589,116.506 152.589,116.743 153.075,117.387 153.67,117.937 155.301,119.447 155.532,119.619 155.923,119.619 156.121,119.619 156.46,119.864 156.676,120.163 156.892,120.463 157.26,120.708 157.493,120.708 157.727,120.708 158.095,120.954 158.311,121.253 158.527,121.553 158.922,121.798 159.188,121.798 159.455,121.798 159.673,121.988 159.673,122.219 159.673,122.451 159.98,122.947 160.354,123.322 160.729,123.696 161.035,124.184 161.035,124.404 161.035,124.934 164.45,128.338 164.981,128.338 165.209,128.338 165.395,128.46 165.395,128.61 165.395,128.76 165.613,128.883 165.88,128.883 166.147,128.883 166.541,129.128 166.757,129.428 166.974,129.728 167.368,129.973 167.635,129.973 167.902,129.973 168.12,130.087 168.12,130.227 168.12,130.367 168.365,130.559 168.665,130.654 168.965,130.749 169.21,131.037 169.21,131.293 169.21,131.55 169.455,131.937 169.755,132.153 170.054,132.369 170.3,132.736 170.3,132.97 170.3,133.204 170.545,133.571 170.845,133.787 171.144,134.003 171.39,134.346 171.39,134.548 171.39,134.957 172.039,135.695 172.4,135.695 172.527,135.695 172.808,135.94 173.025,136.24 173.241,136.54 173.608,136.785 173.842,136.785 174.076,136.785 174.443,137.03 174.659,137.33 174.875,137.629 175.215,137.875 175.413,137.875 175.881,137.875 177.112,139.105 177.112,139.573 177.112,139.772 177.357,140.111 177.657,140.327 177.956,140.543 178.202,140.93 178.202,141.186 178.202,141.443 178.447,141.73 178.747,141.826 179.046,141.921 179.292,142.178 179.292,142.398 179.292,142.894 181.051,144.687 181.538,144.687 181.735,144.687 182.073,144.932 182.289,145.232 182.505,145.531 182.838,145.777 183.03,145.777 183.222,145.777 183.379,145.899 183.379,146.049 183.379,146.199 183.624,146.322 183.924,146.322 184.223,146.322 184.469,146.444 184.469,146.594 184.469,146.744 184.657,146.866 184.888,146.866 185.118,146.866 186.401,147.97 187.738,149.319 189.076,150.668 190.313,151.771 190.489,151.771 190.664,151.771 191.037,152.035 191.317,152.358 L 191.826,152.944 192.334,152.358 C 192.614,152.035 193.016,151.771 193.228,151.771 193.44,151.771 193.793,151.509 194.013,151.189 194.824,150.011 198.079,146.866 198.488,146.866 198.72,146.866 198.91,146.744 198.91,146.594 198.91,146.444 199.155,146.322 199.455,146.322 199.755,146.322 200.0,146.199 200.0,146.049 200.0,145.899 200.218,145.777 200.485,145.777 200.751,145.777 201.146,145.531 201.362,145.232 201.578,144.932 201.916,144.687 202.113,144.687 202.6,144.687 204.36,142.894 204.36,142.398 204.36,142.178 204.605,141.921 204.905,141.826 205.204,141.73 205.45,141.424 205.45,141.146 205.45,140.867 205.634,140.454 205.858,140.23 206.083,140.005 206.267,139.684 206.267,139.517 206.267,139.093 207.527,137.875 207.966,137.875 208.164,137.875 208.503,137.629 208.719,137.33 208.935,137.03 209.303,136.785 209.537,136.785 209.77,136.785 210.138,136.54 210.354,136.24 210.57,135.94 210.913,135.695 211.115,135.695 211.589,135.695 212.262,135.023 212.262,134.548 212.262,134.346 212.507,134.003 212.807,133.787 213.106,133.571 213.351,133.204 213.351,132.97 213.351,132.736 213.597,132.369 213.896,132.153 214.196,131.937 214.441,131.544 214.441,131.28 214.441,130.983 214.727,130.73 215.191,130.616 215.921,130.435 216.894,129.577 216.894,129.114 216.894,128.987 217.139,128.883 217.439,128.883 217.738,128.883 217.984,128.76 217.984,128.61 217.984,128.46 218.17,128.338 218.397,128.338 218.858,128.338 222.343,124.968 222.343,124.523 222.343,124.113 225.811,120.708 226.229,120.708 226.424,120.708 226.759,120.463 226.975,120.163 227.192,119.864 227.469,119.619 227.592,119.619 228.116,119.619 230.79,117.016 230.79,116.506 230.79,116.27 230.913,116.076 231.063,116.076 231.213,116.076 231.335,115.89 231.335,115.662 231.335,115.122 234.196,112.262 234.735,112.262 234.963,112.262 235.15,112.139 235.15,111.989 235.15,111.839 235.395,111.717 235.695,111.717 235.995,111.717 236.24,111.594 236.24,111.444 236.24,111.294 236.433,111.172 236.67,111.172 236.906,111.172 237.55,110.685 238.1,110.09 239.569,108.503 239.782,108.227 239.782,107.913 239.782,107.757 239.905,107.629 240.054,107.629 240.204,107.629 240.327,107.44 240.327,107.208 240.327,106.693 241.528,105.45 242.026,105.45 242.224,105.45 242.563,105.204 242.779,104.905 242.995,104.605 243.363,104.36 243.597,104.36 243.83,104.36 244.198,104.114 244.414,103.815 244.63,103.515 244.968,103.27 245.165,103.27 245.629,103.27 247.411,101.488 247.411,101.023 247.411,100.826 247.657,100.489 247.956,100.272 248.256,100.056 248.501,99.662 248.501,99.395 248.501,99.128 248.624,98.91 248.774,98.91 248.924,98.91 249.046,98.717 249.046,98.482 249.046,98.246 249.2,97.883 249.387,97.674 249.574,97.465 249.886,97.106 250.079,96.876 250.372,96.528 251.277,96.458 255.499,96.458 L 260.568,96.458 261.347,97.273 C 261.775,97.721 262.125,98.273 262.125,98.499 262.125,98.725 262.248,98.91 262.398,98.91 262.548,98.91 262.67,99.155 262.67,99.455 262.67,99.755 262.793,100.0 262.943,100.0 263.093,100.0 263.215,100.186 263.215,100.414 263.215,100.917 266.605,104.36 267.101,104.36 267.296,104.36 267.631,104.605 267.847,104.905 268.063,105.204 268.403,105.45 268.601,105.45 269.098,105.45 270.3,106.693 270.3,107.208 270.3,107.44 270.417,107.629 270.56,107.629 270.831,107.629 271.594,108.379 272.752,109.784 273.127,110.239 273.648,110.614 273.91,110.619 274.172,110.623 274.387,110.749 274.387,110.899 274.387,111.049 274.632,111.172 274.932,111.172 275.232,111.172 275.477,111.294 275.477,111.444 275.477,111.594 275.722,111.717 276.022,111.717 276.322,111.717 276.567,111.839 276.567,111.989 276.567,112.139 276.756,112.262 276.988,112.262 277.503,112.262 278.747,113.463 278.747,113.96 278.747,114.159 278.992,114.498 279.292,114.714 279.853,115.119 280.068,116.621 279.564,116.621 279.398,116.621 279.292,117.847 279.292,119.755 279.292,121.662 279.185,122.888 279.019,122.888 278.869,122.888 278.747,123.199 278.747,123.579 278.747,124.459 277.088,126.158 276.227,126.158 275.881,126.158 275.42,126.403 275.204,126.703 274.988,127.003 274.62,127.248 274.387,127.248 274.153,127.248 273.786,127.493 273.569,127.793 273.353,128.093 272.959,128.338 272.692,128.338 272.425,128.338 272.207,128.456 272.207,128.601 272.207,128.944 270.361,130.79 270.018,130.79 269.873,130.79 269.755,130.978 269.755,131.208 269.755,131.718 268.005,133.515 267.508,133.515 267.311,133.515 266.974,133.76 266.757,134.06 266.541,134.36 266.205,134.605 266.01,134.605 265.549,134.605 262.67,137.483 262.67,137.945 262.67,138.14 262.425,138.476 262.125,138.692 261.826,138.908 261.58,139.247 261.58,139.445 261.58,140.161 259.235,142.507 258.519,142.507 258.32,142.507 257.982,142.752 257.766,143.052 257.55,143.351 257.213,143.597 257.018,143.597 256.586,143.597 253.678,146.461 253.678,146.887 253.678,147.055 253.311,147.536 252.861,147.956 252.411,148.376 252.044,148.863 252.044,149.039 252.044,149.472 251.349,150.136 250.897,150.136 250.695,150.136 250.352,150.381 250.136,150.681 249.92,150.981 249.644,151.226 249.523,151.226 249.402,151.226 248.908,151.594 248.426,152.045 245.314,154.945 243.597,156.689 243.597,156.947 243.597,157.341 242.345,158.583 241.947,158.583 241.776,158.583 241.292,158.951 240.872,159.401 240.452,159.85 239.912,160.218 239.673,160.218 239.433,160.218 239.237,160.339 239.237,160.486 239.237,160.634 238.317,161.674 237.193,162.798 236.069,163.922 235.15,164.909 235.15,164.991 235.15,165.267 233.264,167.03 232.969,167.03 232.808,167.03 231.579,168.164 230.238,169.55 224.633,175.342 222.785,177.112 222.344,177.112 222.066,177.112 219.199,179.971 214.714,184.721 213.59,185.911 212.457,186.893 212.196,186.903 211.588,186.926 202.18,196.433 202.18,197.025 202.18,197.457 200.566,198.91 200.086,198.91 199.865,198.91 199.214,199.401 198.638,200.0 198.062,200.599 197.424,201.09 197.22,201.09 197.017,201.09 196.674,201.335 196.458,201.635 196.242,201.935 195.847,202.18 195.58,202.18 195.314,202.18 195.095,202.302 195.095,202.452 195.095,202.602 194.789,202.725 194.414,202.725 194.04,202.725 193.733,202.847 193.733,202.997 193.733,203.147 193.375,203.27 192.938,203.27 192.501,203.27 192.072,203.423 191.985,203.61 191.857,203.883 191.794,203.883 191.667,203.61 191.579,203.423 191.15,203.27 190.713,203.27 190.276,203.27 189.918,203.147 189.918,202.997 189.918,202.847 189.55,202.725 189.101,202.725 188.651,202.725 188.283,202.602 188.283,202.452 188.283,202.302 188.065,202.18 187.799,202.18 187.532,202.18 187.137,201.935 186.921,201.635 186.705,201.335 186.362,201.09 186.158,201.09 185.955,201.09 185.317,200.599 184.741,200.0 184.165,199.401 183.575,198.91 183.429,198.91 183.048,198.91 181.471,197.387 181.471,197.019 181.471,196.849 180.368,195.615 179.019,194.278 177.67,192.941 176.567,191.714 176.567,191.551 176.567,191.161 175.314,189.918 174.921,189.918 174.751,189.918 173.964,189.244 173.172,188.42 172.38,187.595 171.592,186.921 171.419,186.921 171.247,186.921 168.904,184.714 166.213,182.016 163.521,179.319 161.251,177.112 161.167,177.112 160.938,177.112 160.058,176.282 155.171,171.458 152.704,169.022 150.5,167.03 150.275,167.03 150.049,167.03 149.864,166.913 149.864,166.77 149.864,166.627 149.557,166.203 149.183,165.829 148.808,165.454 148.501,165.079 148.501,164.995 148.501,164.703 143.875,160.218 143.574,160.218 143.407,160.218 142.927,159.85 142.507,159.401 142.087,158.951 141.603,158.583 141.431,158.583 141.035,158.583 139.782,157.342 139.782,156.949 139.782,156.573 139.44,156.161 137.673,154.411 135.16,151.922 134.356,151.226 133.992,151.226 133.796,151.226 133.459,150.981 133.243,150.681 133.026,150.381 132.684,150.136 132.482,150.136 132.007,150.136 131.335,149.464 131.335,148.99 131.335,148.787 131.09,148.445 130.79,148.229 130.49,148.013 130.245,147.676 130.245,147.48 130.245,147.285 129.724,146.594 129.087,145.946 128.45,145.298 127.749,144.504 127.528,144.182 127.308,143.86 126.937,143.597 126.703,143.597 126.469,143.597 126.102,143.351 125.886,143.052 125.67,142.752 125.331,142.507 125.133,142.507 124.742,142.507 124.511,142.335 122.88,140.825 122.285,140.275 121.798,139.658 121.798,139.455 121.798,139.251 121.553,138.908 121.253,138.692 120.954,138.476 120.708,138.14 120.708,137.945 120.708,137.459 117.818,134.605 117.327,134.605 117.109,134.605 116.853,134.36 116.757,134.06 116.662,133.76 116.405,133.515 116.185,133.515 115.657,133.515 113.896,131.741 113.896,131.208 113.896,130.978 113.777,130.79 113.63,130.79 113.483,130.79 112.689,130.116 111.865,129.292 111.04,128.467 110.207,127.793 110.012,127.793 109.817,127.793 109.48,127.548 109.264,127.248 109.048,126.948 108.653,126.703 108.387,126.703 108.12,126.703 107.902,126.58 107.902,126.431 107.902,126.281 107.706,126.158 107.466,126.158 107.09,126.158 106.436,125.56 105.211,124.095 105.042,123.893 104.905,123.294 104.905,122.764 104.905,122.233 104.782,121.798 104.632,121.798 104.47,121.798 104.36,120.754 104.36,119.21 104.36,117.666 104.25,116.621 104.087,116.621 103.584,116.621 103.798,115.119 104.36,114.714 104.659,114.498 104.905,114.103 104.905,113.836 104.905,113.57 105.019,113.351 105.159,113.351 105.299,113.351 105.491,113.106 105.586,112.807 105.681,112.507 105.996,112.262 106.285,112.262 106.575,112.262 106.812,112.139 106.812,111.989 106.812,111.839 107.057,111.717 107.357,111.717 107.657,111.717 107.902,111.594 107.902,111.444 107.902,111.294 108.147,111.172 108.447,111.172 108.747,111.172 108.992,111.049 108.992,110.899 108.992,110.749 109.178,110.627 109.406,110.627 109.635,110.627 110.495,109.952 111.32,109.128 112.144,108.304 112.938,107.629 113.085,107.629 113.232,107.629 113.351,107.44 113.351,107.208 113.351,106.693 114.553,105.45 115.05,105.45 115.249,105.45 115.588,105.204 115.804,104.905 116.02,104.605 116.295,104.36 116.415,104.36 116.779,104.36 119.619,101.4 119.619,101.02 119.619,100.825 119.864,100.489 120.163,100.272 120.463,100.056 120.708,99.662 120.708,99.395 120.708,99.128 120.831,98.91 120.981,98.91 121.131,98.91 121.253,98.714 121.253,98.474 121.253,98.235 121.652,97.683 122.139,97.249 122.626,96.815 123.147,96.343 123.297,96.2 123.694,95.821 132.087,95.838 132.542,96.219" />
</g>
</svg>